M48
METRIC,TZ
T1C0.300
T2C0.400
T3C0.650
T4C1.000
%
G90
G05
T1
X136.179Y-111.175
X136.243Y-158.672
X136.846Y-126.224
X136.846Y-128.224
X137.957Y-123.177
X138.179Y-111.175
X138.243Y-158.672
X138.846Y-126.224
X138.846Y-128.224
X139.545Y-120.51
X140.179Y-111.175
X140.243Y-158.672
X140.815Y-155.752
X142.179Y-111.175
X142.212Y-139.306
X142.243Y-158.672
X142.466Y-145.021
X142.847Y-150.672
X143.546Y-148.577
X144.179Y-111.175
X144.243Y-158.672
X144.625Y-144.132
X145.07Y-150.101
X145.196Y-120.891
X146.243Y-158.672
X146.784Y-147.243
X148.243Y-158.672
X149.197Y-127.05
X150.243Y-158.672
X150.303Y-121.652
X150.911Y-126.161
X152.243Y-158.672
X152.245Y-114.668
X154.243Y-158.672
X154.849Y-110.985
X155.992Y-116.128
X156.118Y-134.415
X156.118Y-136.415
X156.243Y-158.672
X156.849Y-110.985
X157.007Y-119.303
X157.897Y-119.43
X158.118Y-134.415
X158.118Y-136.415
X158.243Y-158.672
X158.404Y-120.7
X158.849Y-110.985
X158.849Y-124.002
X158.976Y-118.605
X159.23Y-117.335
X159.23Y-120.319
X159.23Y-121.335
X160.243Y-158.672
X160.309Y-123.939
X160.627Y-117.716
X160.754Y-116.763
X160.849Y-110.985
X162.243Y-158.672
X162.849Y-110.985
X163.865Y-116.192
X164.243Y-158.672
X164.437Y-116.763
X164.849Y-110.985
X164.849Y-112.763
X164.849Y-114.763
X165.707Y-122.352
X166.215Y-118.795
X166.243Y-158.672
X166.469Y-118.224
X166.849Y-110.985
X166.849Y-112.763
X166.849Y-114.763
X167.067Y-146.862
X167.067Y-148.862
X167.067Y-150.862
X167.067Y-152.862
X167.067Y-154.862
X167.294Y-121.905
X168.243Y-158.672
X168.849Y-110.985
X169.067Y-146.862
X169.067Y-148.862
X169.067Y-150.862
X169.067Y-152.862
X169.067Y-154.862
X169.294Y-121.905
X170.243Y-158.672
X170.849Y-110.985
X171.067Y-146.862
X171.067Y-148.862
X171.067Y-150.862
X171.067Y-152.862
X171.067Y-154.862
X172.243Y-158.672
X172.849Y-110.985
X173.067Y-146.862
X173.067Y-148.862
X173.067Y-150.862
X173.067Y-152.862
X173.067Y-154.862
X173.2Y-120.7
X173.708Y-121.843
X173.708Y-123.843
X173.708Y-125.843
X173.708Y-127.843
X173.708Y-129.844
X173.708Y-131.844
X173.708Y-133.844
X174.243Y-158.672
X175.067Y-146.862
X175.067Y-148.862
X175.067Y-150.862
X175.067Y-152.862
X175.067Y-154.862
X175.708Y-121.843
X175.708Y-123.843
X175.708Y-125.843
X175.708Y-127.843
X175.708Y-129.844
X175.708Y-131.844
X175.708Y-133.844
X175.708Y-135.844
X177.708Y-121.843
X177.708Y-123.843
X177.708Y-125.843
X177.708Y-127.843
X177.708Y-129.844
X177.708Y-131.844
X177.708Y-133.844
X177.708Y-135.844
X179.708Y-121.843
X179.708Y-123.843
X179.708Y-125.843
X179.708Y-127.843
X179.708Y-129.844
X179.708Y-131.844
X179.708Y-133.844
X179.708Y-135.844
X181.708Y-121.843
X181.708Y-123.843
X181.708Y-125.843
X181.708Y-127.843
X181.708Y-129.844
X181.708Y-131.844
X181.708Y-133.844
X181.708Y-135.844
X183.708Y-121.843
X183.708Y-123.843
X183.708Y-125.843
X183.708Y-127.843
X183.708Y-129.844
X183.708Y-131.844
X183.708Y-133.844
X183.708Y-135.844
T2
X140.053Y-118.732
X140.751Y-143.56
X140.815Y-138.671
X141.513Y-147.815
X142.275Y-123.812
X143.037Y-155.625
X143.228Y-139.496
X143.736Y-131.94
X144.244Y-120.954
X144.498Y-114.287
X144.625Y-132.13
X145.006Y-121.59
X145.133Y-122.415
X145.323Y-117.716
X145.768Y-115.747
X146.276Y-135.178
X146.72Y-115.874
X146.911Y-136.067
X146.911Y-148.704
X147.228Y-141.655
X147.419Y-140.131
X147.482Y-154.927
X147.546Y-150.101
X147.927Y-136.957
X148.244Y-153.339
X148.435Y-118.478
X148.435Y-132.067
X148.499Y-119.367
X148.499Y-131.114
X149.006Y-114.668
X149.133Y-122.986
X149.324Y-119.684
X149.451Y-133.781
X149.705Y-140.449
X149.832Y-114.731
X149.832Y-136.957
X149.959Y-117.779
X150.53Y-119.43
X150.657Y-114.731
X151.483Y-114.731
X153.451Y-135.052
X153.451Y-136.576
X153.515Y-126.098
X153.642Y-123.24
X154.468Y-126.034
X155.293Y-128.701
X159.535Y-115.862
X160.183Y-132.575
X162.469Y-123.494
X178.788Y-145.783
X179.55Y-145.338
T3
X169.84Y-141.147
X181.64Y-141.147
T4
X138.008Y-113.997
X138.084Y-130.67
X138.084Y-133.21
X138.084Y-135.75
X138.084Y-140.703
X138.084Y-143.243
X138.084Y-145.783
X138.084Y-148.323
X138.084Y-150.863
X140.548Y-113.997
X152.29Y-147.
X152.29Y-149.54
X152.29Y-152.08
X152.29Y-154.62
X182.Y-147.
X182.Y-149.54
X182.Y-152.08
X182.Y-154.62
X182.Y-157.16
T0
M30
