G04 #@! TF.FileFunction,Legend,Top*
%FSLAX46Y46*%
G04 Gerber Fmt 4.6, Leading zero omitted, Abs format (unit mm)*
G04 Created by KiCad (PCBNEW 4.0.5) date Thu Mar 16 09:26:44 2017*
%MOMM*%
%LPD*%
G01*
G04 APERTURE LIST*
%ADD10C,0.100000*%
%ADD11C,0.120000*%
%ADD12C,0.500000*%
%ADD13C,0.150000*%
%ADD14C,0.200000*%
G04 APERTURE END LIST*
D10*
D11*
X139278000Y-112607500D02*
X136618000Y-112607500D01*
X136618000Y-112607500D02*
X136618000Y-115387500D01*
X136618000Y-115387500D02*
X139278000Y-115387500D01*
X139278000Y-115387500D02*
X139278000Y-112607500D01*
X140548000Y-112607500D02*
X141938000Y-112607500D01*
X141938000Y-112607500D02*
X141938000Y-113997500D01*
X163957500Y-126700500D02*
X163957500Y-127400500D01*
X162757500Y-127400500D02*
X162757500Y-126700500D01*
X158023000Y-126461000D02*
X158023000Y-125761000D01*
X159223000Y-125761000D02*
X159223000Y-126461000D01*
X165230000Y-124799500D02*
X165930000Y-124799500D01*
X165930000Y-125999500D02*
X165230000Y-125999500D01*
X160535000Y-115462500D02*
X160535000Y-114762500D01*
X161735000Y-114762500D02*
X161735000Y-115462500D01*
X164849000Y-123402500D02*
X165549000Y-123402500D01*
X165549000Y-124602500D02*
X164849000Y-124602500D01*
X161868500Y-115462500D02*
X161868500Y-114762500D01*
X163068500Y-114762500D02*
X163068500Y-115462500D01*
X143184000Y-118915500D02*
X142484000Y-118915500D01*
X142484000Y-117715500D02*
X143184000Y-117715500D01*
X138424000Y-124253500D02*
X138424000Y-123553500D01*
X139624000Y-123553500D02*
X139624000Y-124253500D01*
D12*
X166840000Y-143147500D02*
X184640000Y-143147500D01*
X184640000Y-142897500D02*
X184640000Y-123897500D01*
X166840000Y-123897500D02*
X184640000Y-123897500D01*
X166840000Y-142897500D02*
X166840000Y-123897500D01*
D11*
X144975000Y-145430500D02*
X144275000Y-145430500D01*
X144275000Y-144230500D02*
X144975000Y-144230500D01*
X142141500Y-149510000D02*
X142141500Y-150210000D01*
X140941500Y-150210000D02*
X140941500Y-149510000D01*
X142205000Y-155288500D02*
X142205000Y-155988500D01*
X141005000Y-155988500D02*
X141005000Y-155288500D01*
X152210000Y-127526000D02*
X152210000Y-128226000D01*
X151010000Y-128226000D02*
X151010000Y-127526000D01*
X136694500Y-131940000D02*
X136694500Y-137140000D01*
X136694500Y-137140000D02*
X139474500Y-137140000D01*
X139474500Y-137140000D02*
X139474500Y-131940000D01*
X139474500Y-131940000D02*
X136694500Y-131940000D01*
X136694500Y-130670000D02*
X136694500Y-129280000D01*
X136694500Y-129280000D02*
X138084500Y-129280000D01*
X150900000Y-148270000D02*
X150900000Y-156010000D01*
X150900000Y-156010000D02*
X153680000Y-156010000D01*
X153680000Y-156010000D02*
X153680000Y-148270000D01*
X153680000Y-148270000D02*
X150900000Y-148270000D01*
X150900000Y-147000000D02*
X150900000Y-145610000D01*
X150900000Y-145610000D02*
X152290000Y-145610000D01*
X180610000Y-148270000D02*
X180610000Y-158550000D01*
X180610000Y-158550000D02*
X183390000Y-158550000D01*
X183390000Y-158550000D02*
X183390000Y-148270000D01*
X183390000Y-148270000D02*
X180610000Y-148270000D01*
X180610000Y-147000000D02*
X180610000Y-145610000D01*
X180610000Y-145610000D02*
X182000000Y-145610000D01*
X165381500Y-141891000D02*
X164381500Y-141891000D01*
X164381500Y-140531000D02*
X165381500Y-140531000D01*
X150575500Y-138107500D02*
X150575500Y-139107500D01*
X149215500Y-139107500D02*
X149215500Y-138107500D01*
X148607000Y-138107500D02*
X148607000Y-139107500D01*
X147247000Y-139107500D02*
X147247000Y-138107500D01*
X144760000Y-152659500D02*
X145760000Y-152659500D01*
X145760000Y-154019500D02*
X144760000Y-154019500D01*
D13*
X160316000Y-122640000D02*
X160316000Y-122115000D01*
X165566000Y-117390000D02*
X165566000Y-117915000D01*
X160316000Y-117390000D02*
X160316000Y-117915000D01*
X165566000Y-122640000D02*
X165041000Y-122640000D01*
X165566000Y-117390000D02*
X165041000Y-117390000D01*
X160316000Y-117390000D02*
X160841000Y-117390000D01*
X160316000Y-122640000D02*
X160841000Y-122640000D01*
X154727000Y-124135000D02*
X154727000Y-123910000D01*
X147477000Y-124135000D02*
X147477000Y-123810000D01*
X147477000Y-116885000D02*
X147477000Y-117210000D01*
X154727000Y-116885000D02*
X154727000Y-117210000D01*
X154727000Y-124135000D02*
X154402000Y-124135000D01*
X154727000Y-116885000D02*
X154402000Y-116885000D01*
X147477000Y-116885000D02*
X147802000Y-116885000D01*
X147477000Y-124135000D02*
X147802000Y-124135000D01*
X154727000Y-123910000D02*
X156152000Y-123910000D01*
D11*
X140716000Y-121479500D02*
X140716000Y-123279500D01*
X143936000Y-123279500D02*
X143936000Y-120829500D01*
D12*
X145859500Y-146812000D02*
X146621500Y-146812000D01*
X146621500Y-146812000D02*
X146621500Y-147320000D01*
D13*
X143628000Y-143572500D02*
X145678000Y-143572500D01*
X142923000Y-140272500D02*
X145678000Y-140272500D01*
X144499500Y-156675000D02*
X145949500Y-156675000D01*
X143774500Y-154475000D02*
X145949500Y-154475000D01*
D11*
X162513000Y-126753000D02*
X162513000Y-124453000D01*
X162513000Y-124453000D02*
X159813000Y-124453000D01*
X148623500Y-129710000D02*
X148623500Y-128780000D01*
X148623500Y-126550000D02*
X148623500Y-127480000D01*
X148623500Y-126550000D02*
X146463500Y-126550000D01*
X148623500Y-129710000D02*
X147163500Y-129710000D01*
X153543500Y-127526000D02*
X153543500Y-128226000D01*
X152343500Y-128226000D02*
X152343500Y-127526000D01*
X154877000Y-127526000D02*
X154877000Y-128226000D01*
X153677000Y-128226000D02*
X153677000Y-127526000D01*
X153296000Y-113684500D02*
X153296000Y-112984500D01*
X154496000Y-112984500D02*
X154496000Y-113684500D01*
X150876500Y-127526000D02*
X150876500Y-128226000D01*
X149676500Y-128226000D02*
X149676500Y-127526000D01*
X136694500Y-141973000D02*
X136694500Y-152253000D01*
X136694500Y-152253000D02*
X139474500Y-152253000D01*
X139474500Y-152253000D02*
X139474500Y-141973000D01*
X139474500Y-141973000D02*
X136694500Y-141973000D01*
X136694500Y-140703000D02*
X136694500Y-139313000D01*
X136694500Y-139313000D02*
X138084500Y-139313000D01*
X170346500Y-113677500D02*
X170846500Y-113677500D01*
X170846500Y-112737500D02*
X170346500Y-112737500D01*
X170346500Y-115138000D02*
X170846500Y-115138000D01*
X170846500Y-114198000D02*
X170346500Y-114198000D01*
X172841000Y-114346500D02*
X172841000Y-113846500D01*
X171781000Y-113846500D02*
X171781000Y-114346500D01*
X171841000Y-116513500D02*
X171841000Y-117013500D01*
X172781000Y-117013500D02*
X172781000Y-116513500D01*
X169068500Y-118897000D02*
X168568500Y-118897000D01*
X168568500Y-119837000D02*
X169068500Y-119837000D01*
X169068500Y-119786000D02*
X168568500Y-119786000D01*
X168568500Y-120726000D02*
X169068500Y-120726000D01*
X138267000Y-119273500D02*
X137267000Y-119273500D01*
X137267000Y-119273500D02*
X137267000Y-121373500D01*
X138267000Y-119273500D02*
X138267000Y-121373500D01*
X138648000Y-118713500D02*
X137648000Y-118713500D01*
X137648000Y-117353500D02*
X138648000Y-117353500D01*
X143537500Y-128619500D02*
X142537500Y-128619500D01*
X142537500Y-127259500D02*
X143537500Y-127259500D01*
D14*
X161706500Y-132575000D02*
X162722500Y-132575000D01*
X162722500Y-132575000D02*
X162722500Y-133591000D01*
X152562500Y-138417000D02*
X152562500Y-138925000D01*
X152562500Y-138925000D02*
X152562500Y-139179000D01*
X152562500Y-139179000D02*
X153324500Y-139179000D01*
X162722500Y-138163000D02*
X162722500Y-139179000D01*
X162722500Y-139179000D02*
X161706500Y-139179000D01*
X152562500Y-132575000D02*
X152562500Y-133083000D01*
X152562500Y-133083000D02*
X152562500Y-133337000D01*
X153324500Y-132575000D02*
X152562500Y-132575000D01*
D11*
X153924500Y-130574000D02*
X153924500Y-131274000D01*
X152724500Y-131274000D02*
X152724500Y-130574000D01*
X152544000Y-130424000D02*
X152544000Y-131424000D01*
X151184000Y-131424000D02*
X151184000Y-130424000D01*
X154105000Y-131424000D02*
X154105000Y-130424000D01*
X155465000Y-130424000D02*
X155465000Y-131424000D01*
D13*
X142866571Y-114783214D02*
X142914190Y-114640357D01*
X142961810Y-114592738D01*
X143057048Y-114545119D01*
X143199905Y-114545119D01*
X143295143Y-114592738D01*
X143342762Y-114640357D01*
X143390381Y-114735595D01*
X143390381Y-115116548D01*
X142390381Y-115116548D01*
X142390381Y-114783214D01*
X142438000Y-114687976D01*
X142485619Y-114640357D01*
X142580857Y-114592738D01*
X142676095Y-114592738D01*
X142771333Y-114640357D01*
X142818952Y-114687976D01*
X142866571Y-114783214D01*
X142866571Y-115116548D01*
X142390381Y-114259405D02*
X142390381Y-113687976D01*
X143390381Y-113973691D02*
X142390381Y-113973691D01*
X143390381Y-112830833D02*
X143390381Y-113402262D01*
X143390381Y-113116548D02*
X142390381Y-113116548D01*
X142533238Y-113211786D01*
X142628476Y-113307024D01*
X142676095Y-113402262D01*
X165214643Y-127217166D02*
X165262262Y-127264785D01*
X165309881Y-127407642D01*
X165309881Y-127502880D01*
X165262262Y-127645738D01*
X165167024Y-127740976D01*
X165071786Y-127788595D01*
X164881310Y-127836214D01*
X164738452Y-127836214D01*
X164547976Y-127788595D01*
X164452738Y-127740976D01*
X164357500Y-127645738D01*
X164309881Y-127502880D01*
X164309881Y-127407642D01*
X164357500Y-127264785D01*
X164405119Y-127217166D01*
X164643214Y-126360023D02*
X165309881Y-126360023D01*
X164262262Y-126598119D02*
X164976548Y-126836214D01*
X164976548Y-126217166D01*
X157480143Y-126277666D02*
X157527762Y-126325285D01*
X157575381Y-126468142D01*
X157575381Y-126563380D01*
X157527762Y-126706238D01*
X157432524Y-126801476D01*
X157337286Y-126849095D01*
X157146810Y-126896714D01*
X157003952Y-126896714D01*
X156813476Y-126849095D01*
X156718238Y-126801476D01*
X156623000Y-126706238D01*
X156575381Y-126563380D01*
X156575381Y-126468142D01*
X156623000Y-126325285D01*
X156670619Y-126277666D01*
X156575381Y-125372904D02*
X156575381Y-125849095D01*
X157051571Y-125896714D01*
X157003952Y-125849095D01*
X156956333Y-125753857D01*
X156956333Y-125515761D01*
X157003952Y-125420523D01*
X157051571Y-125372904D01*
X157146810Y-125325285D01*
X157384905Y-125325285D01*
X157480143Y-125372904D01*
X157527762Y-125420523D01*
X157575381Y-125515761D01*
X157575381Y-125753857D01*
X157527762Y-125849095D01*
X157480143Y-125896714D01*
X165413334Y-124256643D02*
X165365715Y-124304262D01*
X165222858Y-124351881D01*
X165127620Y-124351881D01*
X164984762Y-124304262D01*
X164889524Y-124209024D01*
X164841905Y-124113786D01*
X164794286Y-123923310D01*
X164794286Y-123780452D01*
X164841905Y-123589976D01*
X164889524Y-123494738D01*
X164984762Y-123399500D01*
X165127620Y-123351881D01*
X165222858Y-123351881D01*
X165365715Y-123399500D01*
X165413334Y-123447119D01*
X166270477Y-123351881D02*
X166080000Y-123351881D01*
X165984762Y-123399500D01*
X165937143Y-123447119D01*
X165841905Y-123589976D01*
X165794286Y-123780452D01*
X165794286Y-124161405D01*
X165841905Y-124256643D01*
X165889524Y-124304262D01*
X165984762Y-124351881D01*
X166175239Y-124351881D01*
X166270477Y-124304262D01*
X166318096Y-124256643D01*
X166365715Y-124161405D01*
X166365715Y-123923310D01*
X166318096Y-123828071D01*
X166270477Y-123780452D01*
X166175239Y-123732833D01*
X165984762Y-123732833D01*
X165889524Y-123780452D01*
X165841905Y-123828071D01*
X165794286Y-123923310D01*
X159992143Y-115279166D02*
X160039762Y-115326785D01*
X160087381Y-115469642D01*
X160087381Y-115564880D01*
X160039762Y-115707738D01*
X159944524Y-115802976D01*
X159849286Y-115850595D01*
X159658810Y-115898214D01*
X159515952Y-115898214D01*
X159325476Y-115850595D01*
X159230238Y-115802976D01*
X159135000Y-115707738D01*
X159087381Y-115564880D01*
X159087381Y-115469642D01*
X159135000Y-115326785D01*
X159182619Y-115279166D01*
X159087381Y-114945833D02*
X159087381Y-114279166D01*
X160087381Y-114707738D01*
X165032334Y-122859643D02*
X164984715Y-122907262D01*
X164841858Y-122954881D01*
X164746620Y-122954881D01*
X164603762Y-122907262D01*
X164508524Y-122812024D01*
X164460905Y-122716786D01*
X164413286Y-122526310D01*
X164413286Y-122383452D01*
X164460905Y-122192976D01*
X164508524Y-122097738D01*
X164603762Y-122002500D01*
X164746620Y-121954881D01*
X164841858Y-121954881D01*
X164984715Y-122002500D01*
X165032334Y-122050119D01*
X165603762Y-122383452D02*
X165508524Y-122335833D01*
X165460905Y-122288214D01*
X165413286Y-122192976D01*
X165413286Y-122145357D01*
X165460905Y-122050119D01*
X165508524Y-122002500D01*
X165603762Y-121954881D01*
X165794239Y-121954881D01*
X165889477Y-122002500D01*
X165937096Y-122050119D01*
X165984715Y-122145357D01*
X165984715Y-122192976D01*
X165937096Y-122288214D01*
X165889477Y-122335833D01*
X165794239Y-122383452D01*
X165603762Y-122383452D01*
X165508524Y-122431071D01*
X165460905Y-122478690D01*
X165413286Y-122573929D01*
X165413286Y-122764405D01*
X165460905Y-122859643D01*
X165508524Y-122907262D01*
X165603762Y-122954881D01*
X165794239Y-122954881D01*
X165889477Y-122907262D01*
X165937096Y-122859643D01*
X165984715Y-122764405D01*
X165984715Y-122573929D01*
X165937096Y-122478690D01*
X165889477Y-122431071D01*
X165794239Y-122383452D01*
X161325643Y-115279166D02*
X161373262Y-115326785D01*
X161420881Y-115469642D01*
X161420881Y-115564880D01*
X161373262Y-115707738D01*
X161278024Y-115802976D01*
X161182786Y-115850595D01*
X160992310Y-115898214D01*
X160849452Y-115898214D01*
X160658976Y-115850595D01*
X160563738Y-115802976D01*
X160468500Y-115707738D01*
X160420881Y-115564880D01*
X160420881Y-115469642D01*
X160468500Y-115326785D01*
X160516119Y-115279166D01*
X161420881Y-114802976D02*
X161420881Y-114612500D01*
X161373262Y-114517261D01*
X161325643Y-114469642D01*
X161182786Y-114374404D01*
X160992310Y-114326785D01*
X160611357Y-114326785D01*
X160516119Y-114374404D01*
X160468500Y-114422023D01*
X160420881Y-114517261D01*
X160420881Y-114707738D01*
X160468500Y-114802976D01*
X160516119Y-114850595D01*
X160611357Y-114898214D01*
X160849452Y-114898214D01*
X160944690Y-114850595D01*
X160992310Y-114802976D01*
X161039929Y-114707738D01*
X161039929Y-114517261D01*
X160992310Y-114422023D01*
X160944690Y-114374404D01*
X160849452Y-114326785D01*
X142191143Y-120172643D02*
X142143524Y-120220262D01*
X142000667Y-120267881D01*
X141905429Y-120267881D01*
X141762571Y-120220262D01*
X141667333Y-120125024D01*
X141619714Y-120029786D01*
X141572095Y-119839310D01*
X141572095Y-119696452D01*
X141619714Y-119505976D01*
X141667333Y-119410738D01*
X141762571Y-119315500D01*
X141905429Y-119267881D01*
X142000667Y-119267881D01*
X142143524Y-119315500D01*
X142191143Y-119363119D01*
X143143524Y-120267881D02*
X142572095Y-120267881D01*
X142857809Y-120267881D02*
X142857809Y-119267881D01*
X142762571Y-119410738D01*
X142667333Y-119505976D01*
X142572095Y-119553595D01*
X143762571Y-119267881D02*
X143857810Y-119267881D01*
X143953048Y-119315500D01*
X144000667Y-119363119D01*
X144048286Y-119458357D01*
X144095905Y-119648833D01*
X144095905Y-119886929D01*
X144048286Y-120077405D01*
X144000667Y-120172643D01*
X143953048Y-120220262D01*
X143857810Y-120267881D01*
X143762571Y-120267881D01*
X143667333Y-120220262D01*
X143619714Y-120172643D01*
X143572095Y-120077405D01*
X143524476Y-119886929D01*
X143524476Y-119648833D01*
X143572095Y-119458357D01*
X143619714Y-119363119D01*
X143667333Y-119315500D01*
X143762571Y-119267881D01*
X137881143Y-124546357D02*
X137928762Y-124593976D01*
X137976381Y-124736833D01*
X137976381Y-124832071D01*
X137928762Y-124974929D01*
X137833524Y-125070167D01*
X137738286Y-125117786D01*
X137547810Y-125165405D01*
X137404952Y-125165405D01*
X137214476Y-125117786D01*
X137119238Y-125070167D01*
X137024000Y-124974929D01*
X136976381Y-124832071D01*
X136976381Y-124736833D01*
X137024000Y-124593976D01*
X137071619Y-124546357D01*
X137976381Y-123593976D02*
X137976381Y-124165405D01*
X137976381Y-123879691D02*
X136976381Y-123879691D01*
X137119238Y-123974929D01*
X137214476Y-124070167D01*
X137262095Y-124165405D01*
X137976381Y-122641595D02*
X137976381Y-123213024D01*
X137976381Y-122927310D02*
X136976381Y-122927310D01*
X137119238Y-123022548D01*
X137214476Y-123117786D01*
X137262095Y-123213024D01*
X175097143Y-145060643D02*
X175049524Y-145108262D01*
X174906667Y-145155881D01*
X174811429Y-145155881D01*
X174668571Y-145108262D01*
X174573333Y-145013024D01*
X174525714Y-144917786D01*
X174478095Y-144727310D01*
X174478095Y-144584452D01*
X174525714Y-144393976D01*
X174573333Y-144298738D01*
X174668571Y-144203500D01*
X174811429Y-144155881D01*
X174906667Y-144155881D01*
X175049524Y-144203500D01*
X175097143Y-144251119D01*
X176049524Y-145155881D02*
X175478095Y-145155881D01*
X175763809Y-145155881D02*
X175763809Y-144155881D01*
X175668571Y-144298738D01*
X175573333Y-144393976D01*
X175478095Y-144441595D01*
X176430476Y-144251119D02*
X176478095Y-144203500D01*
X176573333Y-144155881D01*
X176811429Y-144155881D01*
X176906667Y-144203500D01*
X176954286Y-144251119D01*
X177001905Y-144346357D01*
X177001905Y-144441595D01*
X176954286Y-144584452D01*
X176382857Y-145155881D01*
X177001905Y-145155881D01*
X143982143Y-146687643D02*
X143934524Y-146735262D01*
X143791667Y-146782881D01*
X143696429Y-146782881D01*
X143553571Y-146735262D01*
X143458333Y-146640024D01*
X143410714Y-146544786D01*
X143363095Y-146354310D01*
X143363095Y-146211452D01*
X143410714Y-146020976D01*
X143458333Y-145925738D01*
X143553571Y-145830500D01*
X143696429Y-145782881D01*
X143791667Y-145782881D01*
X143934524Y-145830500D01*
X143982143Y-145878119D01*
X144934524Y-146782881D02*
X144363095Y-146782881D01*
X144648809Y-146782881D02*
X144648809Y-145782881D01*
X144553571Y-145925738D01*
X144458333Y-146020976D01*
X144363095Y-146068595D01*
X145267857Y-145782881D02*
X145886905Y-145782881D01*
X145553571Y-146163833D01*
X145696429Y-146163833D01*
X145791667Y-146211452D01*
X145839286Y-146259071D01*
X145886905Y-146354310D01*
X145886905Y-146592405D01*
X145839286Y-146687643D01*
X145791667Y-146735262D01*
X145696429Y-146782881D01*
X145410714Y-146782881D01*
X145315476Y-146735262D01*
X145267857Y-146687643D01*
X143398643Y-150502857D02*
X143446262Y-150550476D01*
X143493881Y-150693333D01*
X143493881Y-150788571D01*
X143446262Y-150931429D01*
X143351024Y-151026667D01*
X143255786Y-151074286D01*
X143065310Y-151121905D01*
X142922452Y-151121905D01*
X142731976Y-151074286D01*
X142636738Y-151026667D01*
X142541500Y-150931429D01*
X142493881Y-150788571D01*
X142493881Y-150693333D01*
X142541500Y-150550476D01*
X142589119Y-150502857D01*
X143493881Y-149550476D02*
X143493881Y-150121905D01*
X143493881Y-149836191D02*
X142493881Y-149836191D01*
X142636738Y-149931429D01*
X142731976Y-150026667D01*
X142779595Y-150121905D01*
X142827214Y-148693333D02*
X143493881Y-148693333D01*
X142446262Y-148931429D02*
X143160548Y-149169524D01*
X143160548Y-148550476D01*
X143462143Y-156281357D02*
X143509762Y-156328976D01*
X143557381Y-156471833D01*
X143557381Y-156567071D01*
X143509762Y-156709929D01*
X143414524Y-156805167D01*
X143319286Y-156852786D01*
X143128810Y-156900405D01*
X142985952Y-156900405D01*
X142795476Y-156852786D01*
X142700238Y-156805167D01*
X142605000Y-156709929D01*
X142557381Y-156567071D01*
X142557381Y-156471833D01*
X142605000Y-156328976D01*
X142652619Y-156281357D01*
X143557381Y-155328976D02*
X143557381Y-155900405D01*
X143557381Y-155614691D02*
X142557381Y-155614691D01*
X142700238Y-155709929D01*
X142795476Y-155805167D01*
X142843095Y-155900405D01*
X142557381Y-154424214D02*
X142557381Y-154900405D01*
X143033571Y-154948024D01*
X142985952Y-154900405D01*
X142938333Y-154805167D01*
X142938333Y-154567071D01*
X142985952Y-154471833D01*
X143033571Y-154424214D01*
X143128810Y-154376595D01*
X143366905Y-154376595D01*
X143462143Y-154424214D01*
X143509762Y-154471833D01*
X143557381Y-154567071D01*
X143557381Y-154805167D01*
X143509762Y-154900405D01*
X143462143Y-154948024D01*
X153467143Y-128518857D02*
X153514762Y-128566476D01*
X153562381Y-128709333D01*
X153562381Y-128804571D01*
X153514762Y-128947429D01*
X153419524Y-129042667D01*
X153324286Y-129090286D01*
X153133810Y-129137905D01*
X152990952Y-129137905D01*
X152800476Y-129090286D01*
X152705238Y-129042667D01*
X152610000Y-128947429D01*
X152562381Y-128804571D01*
X152562381Y-128709333D01*
X152610000Y-128566476D01*
X152657619Y-128518857D01*
X153562381Y-127566476D02*
X153562381Y-128137905D01*
X153562381Y-127852191D02*
X152562381Y-127852191D01*
X152705238Y-127947429D01*
X152800476Y-128042667D01*
X152848095Y-128137905D01*
X152562381Y-126709333D02*
X152562381Y-126899810D01*
X152610000Y-126995048D01*
X152657619Y-127042667D01*
X152800476Y-127137905D01*
X152990952Y-127185524D01*
X153371905Y-127185524D01*
X153467143Y-127137905D01*
X153514762Y-127090286D01*
X153562381Y-126995048D01*
X153562381Y-126804571D01*
X153514762Y-126709333D01*
X153467143Y-126661714D01*
X153371905Y-126614095D01*
X153133810Y-126614095D01*
X153038571Y-126661714D01*
X152990952Y-126709333D01*
X152943333Y-126804571D01*
X152943333Y-126995048D01*
X152990952Y-127090286D01*
X153038571Y-127137905D01*
X153133810Y-127185524D01*
X137346405Y-128732381D02*
X137346405Y-127732381D01*
X137727358Y-127732381D01*
X137822596Y-127780000D01*
X137870215Y-127827619D01*
X137917834Y-127922857D01*
X137917834Y-128065714D01*
X137870215Y-128160952D01*
X137822596Y-128208571D01*
X137727358Y-128256190D01*
X137346405Y-128256190D01*
X138298786Y-127827619D02*
X138346405Y-127780000D01*
X138441643Y-127732381D01*
X138679739Y-127732381D01*
X138774977Y-127780000D01*
X138822596Y-127827619D01*
X138870215Y-127922857D01*
X138870215Y-128018095D01*
X138822596Y-128160952D01*
X138251167Y-128732381D01*
X138870215Y-128732381D01*
X151551905Y-145062381D02*
X151551905Y-144062381D01*
X151932858Y-144062381D01*
X152028096Y-144110000D01*
X152075715Y-144157619D01*
X152123334Y-144252857D01*
X152123334Y-144395714D01*
X152075715Y-144490952D01*
X152028096Y-144538571D01*
X151932858Y-144586190D01*
X151551905Y-144586190D01*
X152456667Y-144062381D02*
X153075715Y-144062381D01*
X152742381Y-144443333D01*
X152885239Y-144443333D01*
X152980477Y-144490952D01*
X153028096Y-144538571D01*
X153075715Y-144633810D01*
X153075715Y-144871905D01*
X153028096Y-144967143D01*
X152980477Y-145014762D01*
X152885239Y-145062381D01*
X152599524Y-145062381D01*
X152504286Y-145014762D01*
X152456667Y-144967143D01*
X181261905Y-145062381D02*
X181261905Y-144062381D01*
X181642858Y-144062381D01*
X181738096Y-144110000D01*
X181785715Y-144157619D01*
X181833334Y-144252857D01*
X181833334Y-144395714D01*
X181785715Y-144490952D01*
X181738096Y-144538571D01*
X181642858Y-144586190D01*
X181261905Y-144586190D01*
X182690477Y-144395714D02*
X182690477Y-145062381D01*
X182452381Y-144014762D02*
X182214286Y-144729048D01*
X182833334Y-144729048D01*
X164714834Y-140213381D02*
X164381500Y-139737190D01*
X164143405Y-140213381D02*
X164143405Y-139213381D01*
X164524358Y-139213381D01*
X164619596Y-139261000D01*
X164667215Y-139308619D01*
X164714834Y-139403857D01*
X164714834Y-139546714D01*
X164667215Y-139641952D01*
X164619596Y-139689571D01*
X164524358Y-139737190D01*
X164143405Y-139737190D01*
X165095786Y-139308619D02*
X165143405Y-139261000D01*
X165238643Y-139213381D01*
X165476739Y-139213381D01*
X165571977Y-139261000D01*
X165619596Y-139308619D01*
X165667215Y-139403857D01*
X165667215Y-139499095D01*
X165619596Y-139641952D01*
X165048167Y-140213381D01*
X165667215Y-140213381D01*
X148897881Y-138774166D02*
X148421690Y-139107500D01*
X148897881Y-139345595D02*
X147897881Y-139345595D01*
X147897881Y-138964642D01*
X147945500Y-138869404D01*
X147993119Y-138821785D01*
X148088357Y-138774166D01*
X148231214Y-138774166D01*
X148326452Y-138821785D01*
X148374071Y-138869404D01*
X148421690Y-138964642D01*
X148421690Y-139345595D01*
X147897881Y-138440833D02*
X147897881Y-137821785D01*
X148278833Y-138155119D01*
X148278833Y-138012261D01*
X148326452Y-137917023D01*
X148374071Y-137869404D01*
X148469310Y-137821785D01*
X148707405Y-137821785D01*
X148802643Y-137869404D01*
X148850262Y-137917023D01*
X148897881Y-138012261D01*
X148897881Y-138297976D01*
X148850262Y-138393214D01*
X148802643Y-138440833D01*
X146929381Y-138774166D02*
X146453190Y-139107500D01*
X146929381Y-139345595D02*
X145929381Y-139345595D01*
X145929381Y-138964642D01*
X145977000Y-138869404D01*
X146024619Y-138821785D01*
X146119857Y-138774166D01*
X146262714Y-138774166D01*
X146357952Y-138821785D01*
X146405571Y-138869404D01*
X146453190Y-138964642D01*
X146453190Y-139345595D01*
X146262714Y-137917023D02*
X146929381Y-137917023D01*
X145881762Y-138155119D02*
X146596048Y-138393214D01*
X146596048Y-137774166D01*
X145093334Y-155241881D02*
X144760000Y-154765690D01*
X144521905Y-155241881D02*
X144521905Y-154241881D01*
X144902858Y-154241881D01*
X144998096Y-154289500D01*
X145045715Y-154337119D01*
X145093334Y-154432357D01*
X145093334Y-154575214D01*
X145045715Y-154670452D01*
X144998096Y-154718071D01*
X144902858Y-154765690D01*
X144521905Y-154765690D01*
X145998096Y-154241881D02*
X145521905Y-154241881D01*
X145474286Y-154718071D01*
X145521905Y-154670452D01*
X145617143Y-154622833D01*
X145855239Y-154622833D01*
X145950477Y-154670452D01*
X145998096Y-154718071D01*
X146045715Y-154813310D01*
X146045715Y-155051405D01*
X145998096Y-155146643D01*
X145950477Y-155194262D01*
X145855239Y-155241881D01*
X145617143Y-155241881D01*
X145521905Y-155194262D01*
X145474286Y-155146643D01*
X179486595Y-111580381D02*
X179486595Y-112389905D01*
X179534214Y-112485143D01*
X179581833Y-112532762D01*
X179677071Y-112580381D01*
X179867548Y-112580381D01*
X179962786Y-112532762D01*
X180010405Y-112485143D01*
X180058024Y-112389905D01*
X180058024Y-111580381D01*
X181058024Y-112580381D02*
X180486595Y-112580381D01*
X180772309Y-112580381D02*
X180772309Y-111580381D01*
X180677071Y-111723238D01*
X180581833Y-111818476D01*
X180486595Y-111866095D01*
X170850595Y-116977881D02*
X170850595Y-117787405D01*
X170898214Y-117882643D01*
X170945833Y-117930262D01*
X171041071Y-117977881D01*
X171231548Y-117977881D01*
X171326786Y-117930262D01*
X171374405Y-117882643D01*
X171422024Y-117787405D01*
X171422024Y-116977881D01*
X171850595Y-117073119D02*
X171898214Y-117025500D01*
X171993452Y-116977881D01*
X172231548Y-116977881D01*
X172326786Y-117025500D01*
X172374405Y-117073119D01*
X172422024Y-117168357D01*
X172422024Y-117263595D01*
X172374405Y-117406452D01*
X171802976Y-117977881D01*
X172422024Y-117977881D01*
X162179095Y-123217381D02*
X162179095Y-124026905D01*
X162226714Y-124122143D01*
X162274333Y-124169762D01*
X162369571Y-124217381D01*
X162560048Y-124217381D01*
X162655286Y-124169762D01*
X162702905Y-124122143D01*
X162750524Y-124026905D01*
X162750524Y-123217381D01*
X163131476Y-123217381D02*
X163750524Y-123217381D01*
X163417190Y-123598333D01*
X163560048Y-123598333D01*
X163655286Y-123645952D01*
X163702905Y-123693571D01*
X163750524Y-123788810D01*
X163750524Y-124026905D01*
X163702905Y-124122143D01*
X163655286Y-124169762D01*
X163560048Y-124217381D01*
X163274333Y-124217381D01*
X163179095Y-124169762D01*
X163131476Y-124122143D01*
X150340095Y-126012381D02*
X150340095Y-126821905D01*
X150387714Y-126917143D01*
X150435333Y-126964762D01*
X150530571Y-127012381D01*
X150721048Y-127012381D01*
X150816286Y-126964762D01*
X150863905Y-126917143D01*
X150911524Y-126821905D01*
X150911524Y-126012381D01*
X151816286Y-126345714D02*
X151816286Y-127012381D01*
X151578190Y-125964762D02*
X151340095Y-126679048D01*
X151959143Y-126679048D01*
X144678381Y-123141405D02*
X145487905Y-123141405D01*
X145583143Y-123093786D01*
X145630762Y-123046167D01*
X145678381Y-122950929D01*
X145678381Y-122760452D01*
X145630762Y-122665214D01*
X145583143Y-122617595D01*
X145487905Y-122569976D01*
X144678381Y-122569976D01*
X144678381Y-121617595D02*
X144678381Y-122093786D01*
X145154571Y-122141405D01*
X145106952Y-122093786D01*
X145059333Y-121998548D01*
X145059333Y-121760452D01*
X145106952Y-121665214D01*
X145154571Y-121617595D01*
X145249810Y-121569976D01*
X145487905Y-121569976D01*
X145583143Y-121617595D01*
X145630762Y-121665214D01*
X145678381Y-121760452D01*
X145678381Y-121998548D01*
X145630762Y-122093786D01*
X145583143Y-122141405D01*
X144335595Y-150074381D02*
X144335595Y-150883905D01*
X144383214Y-150979143D01*
X144430833Y-151026762D01*
X144526071Y-151074381D01*
X144716548Y-151074381D01*
X144811786Y-151026762D01*
X144859405Y-150979143D01*
X144907024Y-150883905D01*
X144907024Y-150074381D01*
X145811786Y-150074381D02*
X145621309Y-150074381D01*
X145526071Y-150122000D01*
X145478452Y-150169619D01*
X145383214Y-150312476D01*
X145335595Y-150502952D01*
X145335595Y-150883905D01*
X145383214Y-150979143D01*
X145430833Y-151026762D01*
X145526071Y-151074381D01*
X145716548Y-151074381D01*
X145811786Y-151026762D01*
X145859405Y-150979143D01*
X145907024Y-150883905D01*
X145907024Y-150645810D01*
X145859405Y-150550571D01*
X145811786Y-150502952D01*
X145716548Y-150455333D01*
X145526071Y-150455333D01*
X145430833Y-150502952D01*
X145383214Y-150550571D01*
X145335595Y-150645810D01*
X143891095Y-138799881D02*
X143891095Y-139609405D01*
X143938714Y-139704643D01*
X143986333Y-139752262D01*
X144081571Y-139799881D01*
X144272048Y-139799881D01*
X144367286Y-139752262D01*
X144414905Y-139704643D01*
X144462524Y-139609405D01*
X144462524Y-138799881D01*
X145081571Y-139228452D02*
X144986333Y-139180833D01*
X144938714Y-139133214D01*
X144891095Y-139037976D01*
X144891095Y-138990357D01*
X144938714Y-138895119D01*
X144986333Y-138847500D01*
X145081571Y-138799881D01*
X145272048Y-138799881D01*
X145367286Y-138847500D01*
X145414905Y-138895119D01*
X145462524Y-138990357D01*
X145462524Y-139037976D01*
X145414905Y-139133214D01*
X145367286Y-139180833D01*
X145272048Y-139228452D01*
X145081571Y-139228452D01*
X144986333Y-139276071D01*
X144938714Y-139323690D01*
X144891095Y-139418929D01*
X144891095Y-139609405D01*
X144938714Y-139704643D01*
X144986333Y-139752262D01*
X145081571Y-139799881D01*
X145272048Y-139799881D01*
X145367286Y-139752262D01*
X145414905Y-139704643D01*
X145462524Y-139609405D01*
X145462524Y-139418929D01*
X145414905Y-139323690D01*
X145367286Y-139276071D01*
X145272048Y-139228452D01*
X144462595Y-153002381D02*
X144462595Y-153811905D01*
X144510214Y-153907143D01*
X144557833Y-153954762D01*
X144653071Y-154002381D01*
X144843548Y-154002381D01*
X144938786Y-153954762D01*
X144986405Y-153907143D01*
X145034024Y-153811905D01*
X145034024Y-153002381D01*
X145414976Y-153002381D02*
X146081643Y-153002381D01*
X145653071Y-154002381D01*
X160686809Y-127579190D02*
X160686809Y-128055381D01*
X160353476Y-127055381D02*
X160686809Y-127579190D01*
X161020143Y-127055381D01*
X161877286Y-128055381D02*
X161305857Y-128055381D01*
X161591571Y-128055381D02*
X161591571Y-127055381D01*
X161496333Y-127198238D01*
X161401095Y-127293476D01*
X161305857Y-127341095D01*
X147101595Y-125082381D02*
X147101595Y-125891905D01*
X147149214Y-125987143D01*
X147196833Y-126034762D01*
X147292071Y-126082381D01*
X147482548Y-126082381D01*
X147577786Y-126034762D01*
X147625405Y-125987143D01*
X147673024Y-125891905D01*
X147673024Y-125082381D01*
X148196833Y-126082381D02*
X148387309Y-126082381D01*
X148482548Y-126034762D01*
X148530167Y-125987143D01*
X148625405Y-125844286D01*
X148673024Y-125653810D01*
X148673024Y-125272857D01*
X148625405Y-125177619D01*
X148577786Y-125130000D01*
X148482548Y-125082381D01*
X148292071Y-125082381D01*
X148196833Y-125130000D01*
X148149214Y-125177619D01*
X148101595Y-125272857D01*
X148101595Y-125510952D01*
X148149214Y-125606190D01*
X148196833Y-125653810D01*
X148292071Y-125701429D01*
X148482548Y-125701429D01*
X148577786Y-125653810D01*
X148625405Y-125606190D01*
X148673024Y-125510952D01*
X154800643Y-128518857D02*
X154848262Y-128566476D01*
X154895881Y-128709333D01*
X154895881Y-128804571D01*
X154848262Y-128947429D01*
X154753024Y-129042667D01*
X154657786Y-129090286D01*
X154467310Y-129137905D01*
X154324452Y-129137905D01*
X154133976Y-129090286D01*
X154038738Y-129042667D01*
X153943500Y-128947429D01*
X153895881Y-128804571D01*
X153895881Y-128709333D01*
X153943500Y-128566476D01*
X153991119Y-128518857D01*
X154895881Y-127566476D02*
X154895881Y-128137905D01*
X154895881Y-127852191D02*
X153895881Y-127852191D01*
X154038738Y-127947429D01*
X154133976Y-128042667D01*
X154181595Y-128137905D01*
X153895881Y-127233143D02*
X153895881Y-126566476D01*
X154895881Y-126995048D01*
X156134143Y-128518857D02*
X156181762Y-128566476D01*
X156229381Y-128709333D01*
X156229381Y-128804571D01*
X156181762Y-128947429D01*
X156086524Y-129042667D01*
X155991286Y-129090286D01*
X155800810Y-129137905D01*
X155657952Y-129137905D01*
X155467476Y-129090286D01*
X155372238Y-129042667D01*
X155277000Y-128947429D01*
X155229381Y-128804571D01*
X155229381Y-128709333D01*
X155277000Y-128566476D01*
X155324619Y-128518857D01*
X156229381Y-127566476D02*
X156229381Y-128137905D01*
X156229381Y-127852191D02*
X155229381Y-127852191D01*
X155372238Y-127947429D01*
X155467476Y-128042667D01*
X155515095Y-128137905D01*
X155657952Y-126995048D02*
X155610333Y-127090286D01*
X155562714Y-127137905D01*
X155467476Y-127185524D01*
X155419857Y-127185524D01*
X155324619Y-127137905D01*
X155277000Y-127090286D01*
X155229381Y-126995048D01*
X155229381Y-126804571D01*
X155277000Y-126709333D01*
X155324619Y-126661714D01*
X155419857Y-126614095D01*
X155467476Y-126614095D01*
X155562714Y-126661714D01*
X155610333Y-126709333D01*
X155657952Y-126804571D01*
X155657952Y-126995048D01*
X155705571Y-127090286D01*
X155753190Y-127137905D01*
X155848429Y-127185524D01*
X156038905Y-127185524D01*
X156134143Y-127137905D01*
X156181762Y-127090286D01*
X156229381Y-126995048D01*
X156229381Y-126804571D01*
X156181762Y-126709333D01*
X156134143Y-126661714D01*
X156038905Y-126614095D01*
X155848429Y-126614095D01*
X155753190Y-126661714D01*
X155705571Y-126709333D01*
X155657952Y-126804571D01*
X152753143Y-113977357D02*
X152800762Y-114024976D01*
X152848381Y-114167833D01*
X152848381Y-114263071D01*
X152800762Y-114405929D01*
X152705524Y-114501167D01*
X152610286Y-114548786D01*
X152419810Y-114596405D01*
X152276952Y-114596405D01*
X152086476Y-114548786D01*
X151991238Y-114501167D01*
X151896000Y-114405929D01*
X151848381Y-114263071D01*
X151848381Y-114167833D01*
X151896000Y-114024976D01*
X151943619Y-113977357D01*
X152848381Y-113024976D02*
X152848381Y-113596405D01*
X152848381Y-113310691D02*
X151848381Y-113310691D01*
X151991238Y-113405929D01*
X152086476Y-113501167D01*
X152134095Y-113596405D01*
X152848381Y-112548786D02*
X152848381Y-112358310D01*
X152800762Y-112263071D01*
X152753143Y-112215452D01*
X152610286Y-112120214D01*
X152419810Y-112072595D01*
X152038857Y-112072595D01*
X151943619Y-112120214D01*
X151896000Y-112167833D01*
X151848381Y-112263071D01*
X151848381Y-112453548D01*
X151896000Y-112548786D01*
X151943619Y-112596405D01*
X152038857Y-112644024D01*
X152276952Y-112644024D01*
X152372190Y-112596405D01*
X152419810Y-112548786D01*
X152467429Y-112453548D01*
X152467429Y-112263071D01*
X152419810Y-112167833D01*
X152372190Y-112120214D01*
X152276952Y-112072595D01*
X152133643Y-128518857D02*
X152181262Y-128566476D01*
X152228881Y-128709333D01*
X152228881Y-128804571D01*
X152181262Y-128947429D01*
X152086024Y-129042667D01*
X151990786Y-129090286D01*
X151800310Y-129137905D01*
X151657452Y-129137905D01*
X151466976Y-129090286D01*
X151371738Y-129042667D01*
X151276500Y-128947429D01*
X151228881Y-128804571D01*
X151228881Y-128709333D01*
X151276500Y-128566476D01*
X151324119Y-128518857D01*
X151324119Y-128137905D02*
X151276500Y-128090286D01*
X151228881Y-127995048D01*
X151228881Y-127756952D01*
X151276500Y-127661714D01*
X151324119Y-127614095D01*
X151419357Y-127566476D01*
X151514595Y-127566476D01*
X151657452Y-127614095D01*
X152228881Y-128185524D01*
X152228881Y-127566476D01*
X151228881Y-126947429D02*
X151228881Y-126852190D01*
X151276500Y-126756952D01*
X151324119Y-126709333D01*
X151419357Y-126661714D01*
X151609833Y-126614095D01*
X151847929Y-126614095D01*
X152038405Y-126661714D01*
X152133643Y-126709333D01*
X152181262Y-126756952D01*
X152228881Y-126852190D01*
X152228881Y-126947429D01*
X152181262Y-127042667D01*
X152133643Y-127090286D01*
X152038405Y-127137905D01*
X151847929Y-127185524D01*
X151609833Y-127185524D01*
X151419357Y-127137905D01*
X151324119Y-127090286D01*
X151276500Y-127042667D01*
X151228881Y-126947429D01*
X137346405Y-138765381D02*
X137346405Y-137765381D01*
X137727358Y-137765381D01*
X137822596Y-137813000D01*
X137870215Y-137860619D01*
X137917834Y-137955857D01*
X137917834Y-138098714D01*
X137870215Y-138193952D01*
X137822596Y-138241571D01*
X137727358Y-138289190D01*
X137346405Y-138289190D01*
X138870215Y-138765381D02*
X138298786Y-138765381D01*
X138584500Y-138765381D02*
X138584500Y-137765381D01*
X138489262Y-137908238D01*
X138394024Y-138003476D01*
X138298786Y-138051095D01*
X169953643Y-114834643D02*
X169906024Y-114882262D01*
X169763167Y-114929881D01*
X169667929Y-114929881D01*
X169525071Y-114882262D01*
X169429833Y-114787024D01*
X169382214Y-114691786D01*
X169334595Y-114501310D01*
X169334595Y-114358452D01*
X169382214Y-114167976D01*
X169429833Y-114072738D01*
X169525071Y-113977500D01*
X169667929Y-113929881D01*
X169763167Y-113929881D01*
X169906024Y-113977500D01*
X169953643Y-114025119D01*
X170334595Y-114025119D02*
X170382214Y-113977500D01*
X170477452Y-113929881D01*
X170715548Y-113929881D01*
X170810786Y-113977500D01*
X170858405Y-114025119D01*
X170906024Y-114120357D01*
X170906024Y-114215595D01*
X170858405Y-114358452D01*
X170286976Y-114929881D01*
X170906024Y-114929881D01*
X171858405Y-114929881D02*
X171286976Y-114929881D01*
X171572690Y-114929881D02*
X171572690Y-113929881D01*
X171477452Y-114072738D01*
X171382214Y-114167976D01*
X171286976Y-114215595D01*
X169953643Y-116295143D02*
X169906024Y-116342762D01*
X169763167Y-116390381D01*
X169667929Y-116390381D01*
X169525071Y-116342762D01*
X169429833Y-116247524D01*
X169382214Y-116152286D01*
X169334595Y-115961810D01*
X169334595Y-115818952D01*
X169382214Y-115628476D01*
X169429833Y-115533238D01*
X169525071Y-115438000D01*
X169667929Y-115390381D01*
X169763167Y-115390381D01*
X169906024Y-115438000D01*
X169953643Y-115485619D01*
X170334595Y-115485619D02*
X170382214Y-115438000D01*
X170477452Y-115390381D01*
X170715548Y-115390381D01*
X170810786Y-115438000D01*
X170858405Y-115485619D01*
X170906024Y-115580857D01*
X170906024Y-115676095D01*
X170858405Y-115818952D01*
X170286976Y-116390381D01*
X170906024Y-116390381D01*
X171286976Y-115485619D02*
X171334595Y-115438000D01*
X171429833Y-115390381D01*
X171667929Y-115390381D01*
X171763167Y-115438000D01*
X171810786Y-115485619D01*
X171858405Y-115580857D01*
X171858405Y-115676095D01*
X171810786Y-115818952D01*
X171239357Y-116390381D01*
X171858405Y-116390381D01*
X174113381Y-114263166D02*
X174113381Y-114739357D01*
X173113381Y-114739357D01*
X174113381Y-113406023D02*
X174113381Y-113977452D01*
X174113381Y-113691738D02*
X173113381Y-113691738D01*
X173256238Y-113786976D01*
X173351476Y-113882214D01*
X173399095Y-113977452D01*
X171398143Y-116930166D02*
X171445762Y-116977785D01*
X171493381Y-117120642D01*
X171493381Y-117215880D01*
X171445762Y-117358738D01*
X171350524Y-117453976D01*
X171255286Y-117501595D01*
X171064810Y-117549214D01*
X170921952Y-117549214D01*
X170731476Y-117501595D01*
X170636238Y-117453976D01*
X170541000Y-117358738D01*
X170493381Y-117215880D01*
X170493381Y-117120642D01*
X170541000Y-116977785D01*
X170588619Y-116930166D01*
X171493381Y-115977785D02*
X171493381Y-116549214D01*
X171493381Y-116263500D02*
X170493381Y-116263500D01*
X170636238Y-116358738D01*
X170731476Y-116453976D01*
X170779095Y-116549214D01*
X168651834Y-118454143D02*
X168604215Y-118501762D01*
X168461358Y-118549381D01*
X168366120Y-118549381D01*
X168223262Y-118501762D01*
X168128024Y-118406524D01*
X168080405Y-118311286D01*
X168032786Y-118120810D01*
X168032786Y-117977952D01*
X168080405Y-117787476D01*
X168128024Y-117692238D01*
X168223262Y-117597000D01*
X168366120Y-117549381D01*
X168461358Y-117549381D01*
X168604215Y-117597000D01*
X168651834Y-117644619D01*
X169032786Y-117644619D02*
X169080405Y-117597000D01*
X169175643Y-117549381D01*
X169413739Y-117549381D01*
X169508977Y-117597000D01*
X169556596Y-117644619D01*
X169604215Y-117739857D01*
X169604215Y-117835095D01*
X169556596Y-117977952D01*
X168985167Y-118549381D01*
X169604215Y-118549381D01*
X168651834Y-119343143D02*
X168604215Y-119390762D01*
X168461358Y-119438381D01*
X168366120Y-119438381D01*
X168223262Y-119390762D01*
X168128024Y-119295524D01*
X168080405Y-119200286D01*
X168032786Y-119009810D01*
X168032786Y-118866952D01*
X168080405Y-118676476D01*
X168128024Y-118581238D01*
X168223262Y-118486000D01*
X168366120Y-118438381D01*
X168461358Y-118438381D01*
X168604215Y-118486000D01*
X168651834Y-118533619D01*
X168985167Y-118438381D02*
X169604215Y-118438381D01*
X169270881Y-118819333D01*
X169413739Y-118819333D01*
X169508977Y-118866952D01*
X169556596Y-118914571D01*
X169604215Y-119009810D01*
X169604215Y-119247905D01*
X169556596Y-119343143D01*
X169508977Y-119390762D01*
X169413739Y-119438381D01*
X169128024Y-119438381D01*
X169032786Y-119390762D01*
X168985167Y-119343143D01*
X139469381Y-121311595D02*
X138469381Y-121311595D01*
X138469381Y-121073500D01*
X138517000Y-120930642D01*
X138612238Y-120835404D01*
X138707476Y-120787785D01*
X138897952Y-120740166D01*
X139040810Y-120740166D01*
X139231286Y-120787785D01*
X139326524Y-120835404D01*
X139421762Y-120930642D01*
X139469381Y-121073500D01*
X139469381Y-121311595D01*
X139469381Y-119787785D02*
X139469381Y-120359214D01*
X139469381Y-120073500D02*
X138469381Y-120073500D01*
X138612238Y-120168738D01*
X138707476Y-120263976D01*
X138755095Y-120359214D01*
X137981334Y-117035881D02*
X137648000Y-116559690D01*
X137409905Y-117035881D02*
X137409905Y-116035881D01*
X137790858Y-116035881D01*
X137886096Y-116083500D01*
X137933715Y-116131119D01*
X137981334Y-116226357D01*
X137981334Y-116369214D01*
X137933715Y-116464452D01*
X137886096Y-116512071D01*
X137790858Y-116559690D01*
X137409905Y-116559690D01*
X138838477Y-116035881D02*
X138648000Y-116035881D01*
X138552762Y-116083500D01*
X138505143Y-116131119D01*
X138409905Y-116273976D01*
X138362286Y-116464452D01*
X138362286Y-116845405D01*
X138409905Y-116940643D01*
X138457524Y-116988262D01*
X138552762Y-117035881D01*
X138743239Y-117035881D01*
X138838477Y-116988262D01*
X138886096Y-116940643D01*
X138933715Y-116845405D01*
X138933715Y-116607310D01*
X138886096Y-116512071D01*
X138838477Y-116464452D01*
X138743239Y-116416833D01*
X138552762Y-116416833D01*
X138457524Y-116464452D01*
X138409905Y-116512071D01*
X138362286Y-116607310D01*
X142870834Y-126941881D02*
X142537500Y-126465690D01*
X142299405Y-126941881D02*
X142299405Y-125941881D01*
X142680358Y-125941881D01*
X142775596Y-125989500D01*
X142823215Y-126037119D01*
X142870834Y-126132357D01*
X142870834Y-126275214D01*
X142823215Y-126370452D01*
X142775596Y-126418071D01*
X142680358Y-126465690D01*
X142299405Y-126465690D01*
X143204167Y-125941881D02*
X143870834Y-125941881D01*
X143442262Y-126941881D01*
X156309167Y-141869762D02*
X156452024Y-141917381D01*
X156690120Y-141917381D01*
X156785358Y-141869762D01*
X156832977Y-141822143D01*
X156880596Y-141726905D01*
X156880596Y-141631667D01*
X156832977Y-141536429D01*
X156785358Y-141488810D01*
X156690120Y-141441190D01*
X156499643Y-141393571D01*
X156404405Y-141345952D01*
X156356786Y-141298333D01*
X156309167Y-141203095D01*
X156309167Y-141107857D01*
X156356786Y-141012619D01*
X156404405Y-140965000D01*
X156499643Y-140917381D01*
X156737739Y-140917381D01*
X156880596Y-140965000D01*
X157213929Y-140917381D02*
X157452024Y-141917381D01*
X157642501Y-141203095D01*
X157832977Y-141917381D01*
X158071072Y-140917381D01*
X158975834Y-141917381D02*
X158404405Y-141917381D01*
X158690119Y-141917381D02*
X158690119Y-140917381D01*
X158594881Y-141060238D01*
X158499643Y-141155476D01*
X158404405Y-141203095D01*
X155181643Y-131566857D02*
X155229262Y-131614476D01*
X155276881Y-131757333D01*
X155276881Y-131852571D01*
X155229262Y-131995429D01*
X155134024Y-132090667D01*
X155038786Y-132138286D01*
X154848310Y-132185905D01*
X154705452Y-132185905D01*
X154514976Y-132138286D01*
X154419738Y-132090667D01*
X154324500Y-131995429D01*
X154276881Y-131852571D01*
X154276881Y-131757333D01*
X154324500Y-131614476D01*
X154372119Y-131566857D01*
X154372119Y-131185905D02*
X154324500Y-131138286D01*
X154276881Y-131043048D01*
X154276881Y-130804952D01*
X154324500Y-130709714D01*
X154372119Y-130662095D01*
X154467357Y-130614476D01*
X154562595Y-130614476D01*
X154705452Y-130662095D01*
X155276881Y-131233524D01*
X155276881Y-130614476D01*
X154276881Y-130281143D02*
X154276881Y-129662095D01*
X154657833Y-129995429D01*
X154657833Y-129852571D01*
X154705452Y-129757333D01*
X154753071Y-129709714D01*
X154848310Y-129662095D01*
X155086405Y-129662095D01*
X155181643Y-129709714D01*
X155229262Y-129757333D01*
X155276881Y-129852571D01*
X155276881Y-130138286D01*
X155229262Y-130233524D01*
X155181643Y-130281143D01*
X150866381Y-131090666D02*
X150390190Y-131424000D01*
X150866381Y-131662095D02*
X149866381Y-131662095D01*
X149866381Y-131281142D01*
X149914000Y-131185904D01*
X149961619Y-131138285D01*
X150056857Y-131090666D01*
X150199714Y-131090666D01*
X150294952Y-131138285D01*
X150342571Y-131185904D01*
X150390190Y-131281142D01*
X150390190Y-131662095D01*
X150866381Y-130138285D02*
X150866381Y-130709714D01*
X150866381Y-130424000D02*
X149866381Y-130424000D01*
X150009238Y-130519238D01*
X150104476Y-130614476D01*
X150152095Y-130709714D01*
X156687381Y-131090666D02*
X156211190Y-131424000D01*
X156687381Y-131662095D02*
X155687381Y-131662095D01*
X155687381Y-131281142D01*
X155735000Y-131185904D01*
X155782619Y-131138285D01*
X155877857Y-131090666D01*
X156020714Y-131090666D01*
X156115952Y-131138285D01*
X156163571Y-131185904D01*
X156211190Y-131281142D01*
X156211190Y-131662095D01*
X156115952Y-130519238D02*
X156068333Y-130614476D01*
X156020714Y-130662095D01*
X155925476Y-130709714D01*
X155877857Y-130709714D01*
X155782619Y-130662095D01*
X155735000Y-130614476D01*
X155687381Y-130519238D01*
X155687381Y-130328761D01*
X155735000Y-130233523D01*
X155782619Y-130185904D01*
X155877857Y-130138285D01*
X155925476Y-130138285D01*
X156020714Y-130185904D01*
X156068333Y-130233523D01*
X156115952Y-130328761D01*
X156115952Y-130519238D01*
X156163571Y-130614476D01*
X156211190Y-130662095D01*
X156306429Y-130709714D01*
X156496905Y-130709714D01*
X156592143Y-130662095D01*
X156639762Y-130614476D01*
X156687381Y-130519238D01*
X156687381Y-130328761D01*
X156639762Y-130233523D01*
X156592143Y-130185904D01*
X156496905Y-130138285D01*
X156306429Y-130138285D01*
X156211190Y-130185904D01*
X156163571Y-130233523D01*
X156115952Y-130328761D01*
M02*
