G04 #@! TF.FileFunction,Copper,L2,Bot,Signal*
%FSLAX46Y46*%
G04 Gerber Fmt 4.6, Leading zero omitted, Abs format (unit mm)*
G04 Created by KiCad (PCBNEW 4.0.5) date Thu Mar 16 09:26:44 2017*
%MOMM*%
%LPD*%
G01*
G04 APERTURE LIST*
%ADD10C,0.100000*%
%ADD11C,0.600000*%
%ADD12R,1.700000X1.700000*%
%ADD13O,1.700000X1.700000*%
%ADD14C,1.500000*%
%ADD15C,0.400000*%
%ADD16C,0.500000*%
%ADD17C,0.200000*%
%ADD18C,0.300000*%
%ADD19C,0.250000*%
%ADD20C,0.254000*%
G04 APERTURE END LIST*
D10*
D11*
X144179500Y-111175500D03*
X142179500Y-111175500D03*
X140179500Y-111175500D03*
X138179500Y-111175500D03*
X136179500Y-111175500D03*
X139545000Y-120510000D03*
X155991500Y-116128500D03*
X166848500Y-114763000D03*
X164848500Y-114763000D03*
X166848500Y-112763000D03*
X164848500Y-112763000D03*
X169294500Y-121905500D03*
X167294500Y-121905500D03*
X183708000Y-135843500D03*
X181708000Y-135843500D03*
X179708000Y-135843500D03*
X177708000Y-135843500D03*
X175708000Y-135843500D03*
X183708000Y-133843500D03*
X181708000Y-133843500D03*
X179708000Y-133843500D03*
X177708000Y-133843500D03*
X175708000Y-133843500D03*
X173708000Y-133843500D03*
X183708000Y-131843500D03*
X181708000Y-131843500D03*
X179708000Y-131843500D03*
X177708000Y-131843500D03*
X175708000Y-131843500D03*
X173708000Y-131843500D03*
X183708000Y-129843500D03*
X181708000Y-129843500D03*
X179708000Y-129843500D03*
X177708000Y-129843500D03*
X175708000Y-129843500D03*
X173708000Y-129843500D03*
X183708000Y-127843500D03*
X181708000Y-127843500D03*
X179708000Y-127843500D03*
X177708000Y-127843500D03*
X175708000Y-127843500D03*
X173708000Y-127843500D03*
X183708000Y-125843500D03*
X181708000Y-125843500D03*
X179708000Y-125843500D03*
X177708000Y-125843500D03*
X175708000Y-125843500D03*
X173708000Y-125843500D03*
X183708000Y-123843500D03*
X181708000Y-123843500D03*
X179708000Y-123843500D03*
X177708000Y-123843500D03*
X175708000Y-123843500D03*
X173708000Y-123843500D03*
X183708000Y-121843500D03*
X181708000Y-121843500D03*
X179708000Y-121843500D03*
X177708000Y-121843500D03*
X175708000Y-121843500D03*
X138846000Y-128224000D03*
X136846000Y-128224000D03*
X138846000Y-126224000D03*
X136846000Y-126224000D03*
X158118500Y-136415500D03*
X156118500Y-136415500D03*
X158118500Y-134415500D03*
X156118500Y-134415500D03*
X175067500Y-154861500D03*
X173067500Y-154861500D03*
X171067500Y-154861500D03*
X169067500Y-154861500D03*
X167067500Y-154861500D03*
X175067500Y-152861500D03*
X173067500Y-152861500D03*
X171067500Y-152861500D03*
X169067500Y-152861500D03*
X167067500Y-152861500D03*
X175067500Y-150861500D03*
X173067500Y-150861500D03*
X171067500Y-150861500D03*
X169067500Y-150861500D03*
X167067500Y-150861500D03*
X175067500Y-148861500D03*
X173067500Y-148861500D03*
X171067500Y-148861500D03*
X169067500Y-148861500D03*
X167067500Y-148861500D03*
X175067500Y-146861500D03*
X173067500Y-146861500D03*
X171067500Y-146861500D03*
X169067500Y-146861500D03*
X167067500Y-146861500D03*
X150303500Y-121652000D03*
X174243000Y-158672500D03*
X172243000Y-158672500D03*
X170243000Y-158672500D03*
X168243000Y-158672500D03*
X166243000Y-158672500D03*
X164243000Y-158672500D03*
X162243000Y-158672500D03*
X160243000Y-158672500D03*
X158243000Y-158672500D03*
X156243000Y-158672500D03*
X154243000Y-158672500D03*
X152243000Y-158672500D03*
X150243000Y-158672500D03*
X148243000Y-158672500D03*
X146243000Y-158672500D03*
X144243000Y-158672500D03*
X142243000Y-158672500D03*
X140243000Y-158672500D03*
X138243000Y-158672500D03*
X136243000Y-158672500D03*
X172848500Y-110985000D03*
X170848500Y-110985000D03*
X168848500Y-110985000D03*
X166848500Y-110985000D03*
X164848500Y-110985000D03*
X162848500Y-110985000D03*
X160848500Y-110985000D03*
X158848500Y-110985000D03*
X156848500Y-110985000D03*
X154848500Y-110985000D03*
D12*
X140548000Y-113997500D03*
D13*
X138008000Y-113997500D03*
D14*
X169840000Y-141147500D03*
X181640000Y-141147500D03*
D12*
X138084500Y-130670000D03*
D13*
X138084500Y-133210000D03*
X138084500Y-135750000D03*
D12*
X152290000Y-147000000D03*
D13*
X152290000Y-149540000D03*
X152290000Y-152080000D03*
X152290000Y-154620000D03*
D12*
X182000000Y-147000000D03*
D13*
X182000000Y-149540000D03*
X182000000Y-152080000D03*
X182000000Y-154620000D03*
X182000000Y-157160000D03*
D12*
X138084500Y-140703000D03*
D13*
X138084500Y-143243000D03*
X138084500Y-145783000D03*
X138084500Y-148323000D03*
X138084500Y-150863000D03*
D11*
X173708000Y-121843500D03*
X146911000Y-136067500D03*
X143736000Y-131940000D03*
D15*
X160754000Y-116763500D03*
X173200000Y-120700500D03*
X143545500Y-148577000D03*
X158849000Y-124002500D03*
X160309500Y-123939000D03*
X158976000Y-118605000D03*
X159230000Y-120319500D03*
X164437000Y-116763500D03*
X166215000Y-118795500D03*
X165707000Y-122351500D03*
X149197000Y-127050500D03*
X150911500Y-126161500D03*
X137957500Y-123177000D03*
X142212000Y-139306000D03*
X140815000Y-155752500D03*
X146784000Y-147243500D03*
X144625000Y-144132000D03*
X142466000Y-145021000D03*
X145069500Y-150101000D03*
X142847000Y-150672500D03*
D11*
X159535500Y-115862500D03*
X162468500Y-123494500D03*
X149959000Y-117779500D03*
X146720500Y-115874500D03*
X144244000Y-120954500D03*
X142275500Y-123812000D03*
X147419000Y-140131500D03*
X149705000Y-140449000D03*
X147228500Y-141655500D03*
X141513500Y-147815000D03*
X145006000Y-121589500D03*
X150530500Y-119430500D03*
X149006500Y-114668000D03*
X151483000Y-114731500D03*
X179550000Y-145338500D03*
X150657500Y-114731500D03*
X149832000Y-114731500D03*
X178788000Y-145783000D03*
X147546000Y-150101000D03*
X143037500Y-155625500D03*
X149832000Y-136956500D03*
X148435000Y-118478000D03*
X145323500Y-117716000D03*
X147927000Y-136956500D03*
X147482500Y-154927000D03*
X146911000Y-148704000D03*
X143228000Y-139496500D03*
X148244500Y-153339500D03*
X148498500Y-119367000D03*
D15*
X157007500Y-119303500D03*
X160627000Y-117716000D03*
X159230000Y-117335000D03*
X166469000Y-118224000D03*
X163865500Y-116192000D03*
X145196500Y-120891000D03*
X157896500Y-119430500D03*
X158404500Y-120700500D03*
X152245000Y-114668000D03*
X159230000Y-121335500D03*
D11*
X140815000Y-138671000D03*
X148498500Y-131114500D03*
X153515000Y-126098000D03*
X154467500Y-126034500D03*
X148435000Y-132067000D03*
X140751500Y-143560500D03*
X145133000Y-122415000D03*
X140053000Y-118732000D03*
X144498000Y-114287000D03*
X145768000Y-115747500D03*
X149324000Y-119684500D03*
X144625000Y-132130500D03*
X146276000Y-135178500D03*
X149451000Y-133781500D03*
X153451500Y-135051500D03*
X153451500Y-136575500D03*
X160182500Y-132575000D03*
X149133500Y-122986500D03*
X155293000Y-128701500D03*
X153642000Y-123240500D03*
D16*
X145260000Y-136067500D02*
X146911000Y-136067500D01*
X143736000Y-134543500D02*
X145260000Y-136067500D01*
X143736000Y-131940000D02*
X143736000Y-134543500D01*
D17*
X181640000Y-141147500D02*
X181640000Y-129140500D01*
X181640000Y-129140500D02*
X173200000Y-120700500D01*
X143863000Y-148386500D02*
X143736000Y-148386500D01*
X143736000Y-148386500D02*
X143545500Y-148577000D01*
X160246000Y-124002500D02*
X158849000Y-124002500D01*
X160309500Y-123939000D02*
X160246000Y-124002500D01*
X164437000Y-116763500D02*
X160754000Y-116763500D01*
X160754000Y-116763500D02*
X160817500Y-116763500D01*
X158976000Y-120065500D02*
X158976000Y-118605000D01*
X159230000Y-120319500D02*
X158976000Y-120065500D01*
X166215000Y-118795500D02*
X166659500Y-118795500D01*
X165770500Y-116763500D02*
X164437000Y-116763500D01*
X166977000Y-117970000D02*
X165770500Y-116763500D01*
X166977000Y-118478000D02*
X166977000Y-117970000D01*
X166659500Y-118795500D02*
X166977000Y-118478000D01*
X165707000Y-122351500D02*
X165707000Y-119303500D01*
X165707000Y-119303500D02*
X166215000Y-118795500D01*
X150022500Y-127050500D02*
X149197000Y-127050500D01*
X150911500Y-126161500D02*
X150022500Y-127050500D01*
X138084500Y-130670000D02*
X138084500Y-123304000D01*
X138084500Y-123304000D02*
X137957500Y-123177000D01*
X138084500Y-140703000D02*
X138084500Y-139306000D01*
X138084500Y-139306000D02*
X136052500Y-137274000D01*
X136052500Y-132702000D02*
X138084500Y-130670000D01*
X136052500Y-137274000D02*
X136052500Y-132702000D01*
X139418000Y-137972500D02*
X138084500Y-139306000D01*
X141196000Y-137972500D02*
X139418000Y-137972500D01*
X142212000Y-138988500D02*
X141196000Y-137972500D01*
X142212000Y-139306000D02*
X142212000Y-138988500D01*
X142847000Y-153720500D02*
X142847000Y-150672500D01*
X140815000Y-155752500D02*
X142847000Y-153720500D01*
X146784000Y-146291000D02*
X146784000Y-147243500D01*
X144625000Y-144132000D02*
X146784000Y-146291000D01*
X143863000Y-146418000D02*
X142466000Y-145021000D01*
X143863000Y-146418000D02*
X143863000Y-148386500D01*
X143863000Y-148386500D02*
X143863000Y-150101000D01*
X143418500Y-150101000D02*
X143863000Y-150101000D01*
X143863000Y-150101000D02*
X145069500Y-150101000D01*
X142847000Y-150672500D02*
X143418500Y-150101000D01*
D16*
X159535500Y-115862500D02*
X159535500Y-116434000D01*
X161452500Y-122478500D02*
X162468500Y-123494500D01*
X159992000Y-122288000D02*
X160182500Y-122478500D01*
X160182500Y-122478500D02*
X161452500Y-122478500D01*
X159928500Y-122224500D02*
X159992000Y-122288000D01*
X159928500Y-116827000D02*
X159928500Y-122224500D01*
X159535500Y-116434000D02*
X159928500Y-116827000D01*
X148054000Y-115874500D02*
X149959000Y-117779500D01*
X144244000Y-121018000D02*
X144244000Y-120954500D01*
X142275500Y-122986500D02*
X144244000Y-121018000D01*
X142275500Y-123812000D02*
X142275500Y-122986500D01*
X146720500Y-115874500D02*
X148054000Y-115874500D01*
D18*
X148276250Y-140607750D02*
X147895250Y-140607750D01*
X147895250Y-140607750D02*
X147419000Y-140131500D01*
X148435000Y-140449000D02*
X149705000Y-140449000D01*
X147228500Y-141655500D02*
X148276250Y-140607750D01*
X148276250Y-140607750D02*
X148435000Y-140449000D01*
X138084500Y-148323000D02*
X141005500Y-148323000D01*
X141005500Y-148323000D02*
X141513500Y-147815000D01*
D19*
X140434000Y-133210000D02*
X138084500Y-133210000D01*
X144371000Y-129273000D02*
X140434000Y-133210000D01*
X144371000Y-122224500D02*
X144371000Y-129273000D01*
X145006000Y-121589500D02*
X144371000Y-122224500D01*
X147736500Y-121462500D02*
X148498500Y-121462500D01*
X147736500Y-130352500D02*
X147736500Y-121462500D01*
X148498500Y-121462500D02*
X150530500Y-119430500D01*
X147736500Y-130352500D02*
X147736500Y-133019500D01*
X150022500Y-152352500D02*
X152290000Y-154620000D01*
X150022500Y-145211500D02*
X150022500Y-152352500D01*
X151165500Y-144068500D02*
X150022500Y-145211500D01*
X151165500Y-136448500D02*
X151165500Y-144068500D01*
X147736500Y-133019500D02*
X151165500Y-136448500D01*
X147736500Y-130352500D02*
X147736500Y-130416000D01*
X178026000Y-146100500D02*
X178026000Y-147878500D01*
X161770000Y-129844500D02*
X158150500Y-129844500D01*
X161770000Y-129844500D02*
X178026000Y-146100500D01*
X158150500Y-129844500D02*
X156753500Y-128447500D01*
X149006500Y-114668000D02*
X149070000Y-114731500D01*
X149070000Y-114731500D02*
X149070000Y-115874500D01*
X149070000Y-115874500D02*
X156372500Y-123177000D01*
X156372500Y-123177000D02*
X156372500Y-128066500D01*
X156753500Y-128447500D02*
X156372500Y-128066500D01*
X179687500Y-149540000D02*
X182000000Y-149540000D01*
X178026000Y-147878500D02*
X179687500Y-149540000D01*
X151483000Y-115874500D02*
X152181500Y-115874500D01*
X183667000Y-152080000D02*
X184058500Y-151688500D01*
X184058500Y-151688500D02*
X184058500Y-144830500D01*
X184058500Y-144830500D02*
X183677500Y-144449500D01*
X180058000Y-144449500D02*
X183677500Y-144449500D01*
X151483000Y-114731500D02*
X151483000Y-115874500D01*
X183667000Y-152080000D02*
X182000000Y-152080000D01*
X177899000Y-142290500D02*
X180058000Y-144449500D01*
X177899000Y-139814000D02*
X177899000Y-142290500D01*
X161389000Y-123304000D02*
X177899000Y-139814000D01*
X159039500Y-123304000D02*
X161389000Y-123304000D01*
X158658500Y-122923000D02*
X159039500Y-123304000D01*
X158658500Y-122351500D02*
X158658500Y-122923000D01*
X152181500Y-115874500D02*
X158658500Y-122351500D01*
X163040000Y-128828500D02*
X179550000Y-145338500D01*
X158531500Y-128828500D02*
X163040000Y-128828500D01*
X157452000Y-127749000D02*
X158531500Y-128828500D01*
X157452000Y-122605500D02*
X157452000Y-127749000D01*
X150657500Y-115811000D02*
X157452000Y-122605500D01*
X150657500Y-114731500D02*
X150657500Y-115811000D01*
X158341000Y-129336500D02*
X162341500Y-129336500D01*
X149832000Y-114731500D02*
X149895500Y-114795000D01*
X149895500Y-114795000D02*
X149895500Y-115811000D01*
X149895500Y-115811000D02*
X156944000Y-122859500D01*
X156944000Y-122859500D02*
X156944000Y-127939500D01*
X158309250Y-129304750D02*
X158341000Y-129336500D01*
X156944000Y-127939500D02*
X158309250Y-129304750D01*
X162468500Y-129463500D02*
X178788000Y-145783000D01*
X162341500Y-129336500D02*
X162468500Y-129463500D01*
X147546000Y-153657000D02*
X147546000Y-150101000D01*
X148244500Y-154355500D02*
X147546000Y-153657000D01*
X148244500Y-155435000D02*
X148244500Y-154355500D01*
X148054000Y-155625500D02*
X148244500Y-155435000D01*
X143037500Y-155625500D02*
X148054000Y-155625500D01*
X146339500Y-133464000D02*
X149832000Y-136956500D01*
X146339500Y-120573500D02*
X146339500Y-133464000D01*
X148435000Y-118478000D02*
X146339500Y-120573500D01*
X147927000Y-136956500D02*
X147927000Y-135750000D01*
X145323500Y-117716000D02*
X145768000Y-118160500D01*
X145768000Y-133591000D02*
X145768000Y-118160500D01*
X147927000Y-135750000D02*
X145768000Y-133591000D01*
X145831500Y-136893000D02*
X147863500Y-136893000D01*
X147863500Y-136893000D02*
X147927000Y-136956500D01*
X146911000Y-148704000D02*
X146911000Y-153847500D01*
X147482500Y-154419000D02*
X147482500Y-154927000D01*
X146911000Y-153847500D02*
X147482500Y-154419000D01*
X143228000Y-139496500D02*
X143228000Y-145021000D01*
X143228000Y-145021000D02*
X146911000Y-148704000D01*
X145768000Y-136956500D02*
X145831500Y-136893000D01*
X145831500Y-136893000D02*
X143228000Y-139496500D01*
X148244500Y-143116000D02*
X148244500Y-153339500D01*
X150594000Y-140766500D02*
X148244500Y-143116000D01*
X150594000Y-136702500D02*
X150594000Y-140766500D01*
X146974500Y-133083000D02*
X150594000Y-136702500D01*
X146974500Y-120891000D02*
X146974500Y-133083000D01*
X148498500Y-119367000D02*
X146974500Y-120891000D01*
D17*
X158595000Y-117716000D02*
X158849000Y-117462000D01*
X157007500Y-119303500D02*
X158595000Y-117716000D01*
X165961000Y-117716000D02*
X166469000Y-118224000D01*
X165961000Y-117716000D02*
X160627000Y-117716000D01*
X158976000Y-117335000D02*
X159230000Y-117335000D01*
X158849000Y-117462000D02*
X158976000Y-117335000D01*
X166405500Y-118287500D02*
X166469000Y-118224000D01*
X144688500Y-120383000D02*
X145196500Y-120891000D01*
X144688500Y-115239500D02*
X144688500Y-120383000D01*
X145895000Y-114033000D02*
X144688500Y-115239500D01*
X161643000Y-114033000D02*
X145895000Y-114033000D01*
X163865500Y-116192000D02*
X161643000Y-114033000D01*
X157896500Y-120192500D02*
X157896500Y-119430500D01*
X158404500Y-120700500D02*
X157896500Y-120192500D01*
X152245000Y-115303000D02*
X152245000Y-114668000D01*
X158277500Y-121335500D02*
X152245000Y-115303000D01*
X158595000Y-121335500D02*
X158277500Y-121335500D01*
X159230000Y-121335500D02*
X158595000Y-121335500D01*
D19*
X139545000Y-143243000D02*
X138084500Y-143243000D01*
X140116500Y-142671500D02*
X139545000Y-143243000D01*
X140116500Y-139369500D02*
X140116500Y-142671500D01*
X140815000Y-138671000D02*
X140116500Y-139369500D01*
X153515000Y-126098000D02*
X148498500Y-131114500D01*
X154467500Y-126034500D02*
X148435000Y-132067000D01*
X140751500Y-143560500D02*
X138529000Y-145783000D01*
X138529000Y-145783000D02*
X138084500Y-145783000D01*
X145133000Y-122415000D02*
X145133000Y-129336500D01*
X145133000Y-129336500D02*
X138719500Y-135750000D01*
X138719500Y-135750000D02*
X138084500Y-135750000D01*
X145133000Y-122415000D02*
X144879000Y-122669000D01*
X140053000Y-118732000D02*
X144498000Y-114287000D01*
X145768000Y-115747500D02*
X145958500Y-115938000D01*
X145958500Y-115938000D02*
X145958500Y-116573000D01*
X145958500Y-116573000D02*
X146593500Y-117208000D01*
X146593500Y-117208000D02*
X148308000Y-117208000D01*
X148308000Y-117208000D02*
X149324000Y-118224000D01*
X149324000Y-118224000D02*
X149324000Y-119684500D01*
X145704500Y-135178500D02*
X144625000Y-134099000D01*
X144625000Y-134099000D02*
X144625000Y-132130500D01*
X153451500Y-135051500D02*
X150721000Y-135051500D01*
X150721000Y-135051500D02*
X149451000Y-133781500D01*
X146276000Y-135178500D02*
X145704500Y-135178500D01*
X153451500Y-136575500D02*
X153451500Y-135051500D01*
X155356500Y-123050000D02*
X154721500Y-122415000D01*
X155864500Y-123558000D02*
X155356500Y-123050000D01*
X155864500Y-128257000D02*
X155864500Y-123558000D01*
X160182500Y-132575000D02*
X155864500Y-128257000D01*
X149705000Y-122415000D02*
X149133500Y-122986500D01*
X154721500Y-122415000D02*
X149705000Y-122415000D01*
X149197000Y-123050000D02*
X149133500Y-122986500D01*
X154086500Y-123685000D02*
X153642000Y-123240500D01*
X155293000Y-128701500D02*
X155293000Y-124891500D01*
X155293000Y-124891500D02*
X154086500Y-123685000D01*
D20*
G36*
X173581000Y-121018000D02*
X173591006Y-121067410D01*
X173619447Y-121109035D01*
X173661841Y-121136315D01*
X173708000Y-121145000D01*
X184523000Y-121145000D01*
X184523000Y-144551191D01*
X184448823Y-144440177D01*
X184067823Y-144059177D01*
X183888742Y-143939518D01*
X183677500Y-143897500D01*
X180286646Y-143897500D01*
X178508163Y-142119017D01*
X180848088Y-142119017D01*
X180916077Y-142359960D01*
X181435171Y-142544701D01*
X181985448Y-142516730D01*
X182363923Y-142359960D01*
X182431912Y-142119017D01*
X181640000Y-141327105D01*
X180848088Y-142119017D01*
X178508163Y-142119017D01*
X178451000Y-142061854D01*
X178451000Y-140942671D01*
X180242799Y-140942671D01*
X180270770Y-141492948D01*
X180427540Y-141871423D01*
X180668483Y-141939412D01*
X181460395Y-141147500D01*
X181819605Y-141147500D01*
X182611517Y-141939412D01*
X182852460Y-141871423D01*
X183037201Y-141352329D01*
X183009230Y-140802052D01*
X182852460Y-140423577D01*
X182611517Y-140355588D01*
X181819605Y-141147500D01*
X181460395Y-141147500D01*
X180668483Y-140355588D01*
X180427540Y-140423577D01*
X180242799Y-140942671D01*
X178451000Y-140942671D01*
X178451000Y-140175983D01*
X180848088Y-140175983D01*
X181640000Y-140967895D01*
X182431912Y-140175983D01*
X182363923Y-139935040D01*
X181844829Y-139750299D01*
X181294552Y-139778270D01*
X180916077Y-139935040D01*
X180848088Y-140175983D01*
X178451000Y-140175983D01*
X178451000Y-139814000D01*
X178433633Y-139726690D01*
X178408982Y-139602758D01*
X178289323Y-139423677D01*
X162928343Y-124062697D01*
X163084461Y-123906850D01*
X163195374Y-123639744D01*
X163195626Y-123350525D01*
X163085180Y-123083225D01*
X162880850Y-122878539D01*
X162759623Y-122828201D01*
X161931211Y-121999789D01*
X161789376Y-121905018D01*
X161711577Y-121853034D01*
X161452500Y-121801500D01*
X160605500Y-121801500D01*
X160605500Y-118342982D01*
X160751171Y-118343109D01*
X160981703Y-118247855D01*
X160986566Y-118243000D01*
X165742710Y-118243000D01*
X165841896Y-118342187D01*
X165841891Y-118348171D01*
X165937145Y-118578703D01*
X166113369Y-118755235D01*
X166343735Y-118850891D01*
X166593171Y-118851109D01*
X166823703Y-118755855D01*
X167000235Y-118579631D01*
X167095891Y-118349265D01*
X167096109Y-118099829D01*
X167000855Y-117869297D01*
X166824631Y-117692765D01*
X166594265Y-117597109D01*
X166587393Y-117597103D01*
X166333645Y-117343355D01*
X166162675Y-117229115D01*
X165961000Y-117189000D01*
X160986859Y-117189000D01*
X160982631Y-117184765D01*
X160752265Y-117089109D01*
X160605500Y-117088981D01*
X160605500Y-116827000D01*
X160553966Y-116567923D01*
X160407211Y-116348289D01*
X160212500Y-116153578D01*
X160212500Y-116127853D01*
X160262374Y-116007744D01*
X160262626Y-115718525D01*
X160152180Y-115451225D01*
X159947850Y-115246539D01*
X159680744Y-115135626D01*
X159391525Y-115135374D01*
X159124225Y-115245820D01*
X158919539Y-115450150D01*
X158808626Y-115717256D01*
X158808374Y-116006475D01*
X158858500Y-116127789D01*
X158858500Y-116434000D01*
X158910034Y-116693077D01*
X158960152Y-116768084D01*
X158875297Y-116803145D01*
X158844164Y-116834223D01*
X158774325Y-116848115D01*
X158603355Y-116962355D01*
X156889314Y-118676396D01*
X156883329Y-118676391D01*
X156652797Y-118771645D01*
X156555781Y-118868491D01*
X152772000Y-115084710D01*
X152772000Y-115027859D01*
X152776235Y-115023631D01*
X152871891Y-114793265D01*
X152872095Y-114560000D01*
X161429170Y-114560000D01*
X163239328Y-116318439D01*
X163333645Y-116546703D01*
X163509869Y-116723235D01*
X163740235Y-116818891D01*
X163989671Y-116819109D01*
X164220203Y-116723855D01*
X164396735Y-116547631D01*
X164492391Y-116317265D01*
X164492609Y-116067829D01*
X164397355Y-115837297D01*
X164221131Y-115660765D01*
X163990765Y-115565109D01*
X163976488Y-115565097D01*
X162010206Y-113654994D01*
X161927040Y-113601151D01*
X161844674Y-113546115D01*
X161840861Y-113545357D01*
X161837598Y-113543244D01*
X161740193Y-113525333D01*
X161643000Y-113506000D01*
X145895000Y-113506000D01*
X145693326Y-113546115D01*
X145522355Y-113660354D01*
X145170906Y-114011803D01*
X145114680Y-113875725D01*
X144910350Y-113671039D01*
X144643244Y-113560126D01*
X144354025Y-113559874D01*
X144086725Y-113670320D01*
X143882039Y-113874650D01*
X143771126Y-114141756D01*
X143771046Y-114233308D01*
X139999401Y-118004953D01*
X139909025Y-118004874D01*
X139641725Y-118115320D01*
X139437039Y-118319650D01*
X139326126Y-118586756D01*
X139325874Y-118875975D01*
X139436320Y-119143275D01*
X139640650Y-119347961D01*
X139907756Y-119458874D01*
X140196975Y-119459126D01*
X140464275Y-119348680D01*
X140668961Y-119144350D01*
X140779874Y-118877244D01*
X140779954Y-118785692D01*
X144161500Y-115404146D01*
X144161500Y-120227428D01*
X144100025Y-120227374D01*
X143832725Y-120337820D01*
X143628039Y-120542150D01*
X143532610Y-120771967D01*
X141796789Y-122507789D01*
X141650034Y-122727423D01*
X141598500Y-122986500D01*
X141598500Y-123546647D01*
X141548626Y-123666756D01*
X141548374Y-123955975D01*
X141658820Y-124223275D01*
X141863150Y-124427961D01*
X142130256Y-124538874D01*
X142419475Y-124539126D01*
X142686775Y-124428680D01*
X142891461Y-124224350D01*
X143002374Y-123957244D01*
X143002626Y-123668025D01*
X142952500Y-123546711D01*
X142952500Y-123266922D01*
X143819000Y-122400423D01*
X143819000Y-129044354D01*
X140205354Y-132658000D01*
X139247008Y-132658000D01*
X139012493Y-132307025D01*
X138784972Y-132155000D01*
X139060809Y-132155000D01*
X139294198Y-132058327D01*
X139472827Y-131879699D01*
X139569500Y-131646310D01*
X139569500Y-130955750D01*
X139410750Y-130797000D01*
X138211500Y-130797000D01*
X138211500Y-130817000D01*
X137957500Y-130817000D01*
X137957500Y-130797000D01*
X136758250Y-130797000D01*
X136599500Y-130955750D01*
X136599500Y-131646310D01*
X136696173Y-131879699D01*
X136874802Y-132058327D01*
X137108191Y-132155000D01*
X137384028Y-132155000D01*
X137156507Y-132307025D01*
X136879688Y-132721313D01*
X136782482Y-133210000D01*
X136879688Y-133698687D01*
X137156507Y-134112975D01*
X137570795Y-134389794D01*
X138024291Y-134480000D01*
X137570795Y-134570206D01*
X137156507Y-134847025D01*
X136879688Y-135261313D01*
X136782482Y-135750000D01*
X136879688Y-136238687D01*
X137156507Y-136652975D01*
X137570795Y-136929794D01*
X138059482Y-137027000D01*
X138109518Y-137027000D01*
X138598205Y-136929794D01*
X139012493Y-136652975D01*
X139289312Y-136238687D01*
X139358304Y-135891842D01*
X143054865Y-132195281D01*
X143059000Y-132205289D01*
X143059000Y-134543500D01*
X143110534Y-134802577D01*
X143180658Y-134907525D01*
X143257289Y-135022211D01*
X144781288Y-136546211D01*
X144891106Y-136619588D01*
X145000923Y-136692966D01*
X145209416Y-136734438D01*
X143174401Y-138769453D01*
X143084025Y-138769374D01*
X142816725Y-138879820D01*
X142612039Y-139084150D01*
X142501126Y-139351256D01*
X142500874Y-139640475D01*
X142611320Y-139907775D01*
X142676000Y-139972568D01*
X142676000Y-145021000D01*
X142718018Y-145232242D01*
X142837677Y-145411323D01*
X146183953Y-148757599D01*
X146183874Y-148847975D01*
X146294320Y-149115275D01*
X146359000Y-149180068D01*
X146359000Y-153847500D01*
X146401018Y-154058742D01*
X146520677Y-154237823D01*
X146846284Y-154563430D01*
X146755626Y-154781756D01*
X146755374Y-155070975D01*
X146756417Y-155073500D01*
X143513700Y-155073500D01*
X143449850Y-155009539D01*
X143182744Y-154898626D01*
X142893525Y-154898374D01*
X142626225Y-155008820D01*
X142421539Y-155213150D01*
X142310626Y-155480256D01*
X142310374Y-155769475D01*
X142420820Y-156036775D01*
X142625150Y-156241461D01*
X142892256Y-156352374D01*
X143181475Y-156352626D01*
X143448775Y-156242180D01*
X143513568Y-156177500D01*
X148054000Y-156177500D01*
X148265242Y-156135482D01*
X148444323Y-156015823D01*
X148634823Y-155825323D01*
X148754482Y-155646242D01*
X148796500Y-155435000D01*
X148796500Y-154355500D01*
X148765595Y-154200126D01*
X148754482Y-154144258D01*
X148634823Y-153965177D01*
X148634583Y-153964937D01*
X148655775Y-153956180D01*
X148860461Y-153751850D01*
X148971374Y-153484744D01*
X148971626Y-153195525D01*
X148861180Y-152928225D01*
X148796500Y-152863432D01*
X148796500Y-143344646D01*
X150613500Y-141527646D01*
X150613500Y-143839854D01*
X149632177Y-144821177D01*
X149512518Y-145000258D01*
X149470500Y-145211500D01*
X149470500Y-152352500D01*
X149512518Y-152563742D01*
X149632177Y-152742823D01*
X151074483Y-154185129D01*
X150987982Y-154620000D01*
X151085188Y-155108687D01*
X151362007Y-155522975D01*
X151776295Y-155799794D01*
X152264982Y-155897000D01*
X152315018Y-155897000D01*
X152803705Y-155799794D01*
X153217993Y-155522975D01*
X153494812Y-155108687D01*
X153592018Y-154620000D01*
X153494812Y-154131313D01*
X153217993Y-153717025D01*
X152803705Y-153440206D01*
X152350209Y-153350000D01*
X152803705Y-153259794D01*
X153217993Y-152982975D01*
X153494812Y-152568687D01*
X153592018Y-152080000D01*
X153494812Y-151591313D01*
X153217993Y-151177025D01*
X152810417Y-150904691D01*
X153171358Y-150735183D01*
X153561645Y-150306924D01*
X153731476Y-149896890D01*
X153610155Y-149667000D01*
X152417000Y-149667000D01*
X152417000Y-149687000D01*
X152163000Y-149687000D01*
X152163000Y-149667000D01*
X150969845Y-149667000D01*
X150848524Y-149896890D01*
X151018355Y-150306924D01*
X151408642Y-150735183D01*
X151769583Y-150904691D01*
X151362007Y-151177025D01*
X151085188Y-151591313D01*
X150987982Y-152080000D01*
X151085188Y-152568687D01*
X151217799Y-152767153D01*
X150574500Y-152123854D01*
X150574500Y-149183110D01*
X150848524Y-149183110D01*
X150969845Y-149413000D01*
X152163000Y-149413000D01*
X152163000Y-149393000D01*
X152417000Y-149393000D01*
X152417000Y-149413000D01*
X153610155Y-149413000D01*
X153731476Y-149183110D01*
X153561645Y-148773076D01*
X153171358Y-148344817D01*
X153044764Y-148285365D01*
X153140000Y-148285365D01*
X153298237Y-148255591D01*
X153443567Y-148162073D01*
X153541064Y-148019381D01*
X153575365Y-147850000D01*
X153575365Y-146150000D01*
X153545591Y-145991763D01*
X153452073Y-145846433D01*
X153309381Y-145748936D01*
X153140000Y-145714635D01*
X151440000Y-145714635D01*
X151281763Y-145744409D01*
X151136433Y-145837927D01*
X151038936Y-145980619D01*
X151004635Y-146150000D01*
X151004635Y-147850000D01*
X151034409Y-148008237D01*
X151127927Y-148153567D01*
X151270619Y-148251064D01*
X151440000Y-148285365D01*
X151535236Y-148285365D01*
X151408642Y-148344817D01*
X151018355Y-148773076D01*
X150848524Y-149183110D01*
X150574500Y-149183110D01*
X150574500Y-145440146D01*
X151555823Y-144458823D01*
X151675482Y-144279742D01*
X151717500Y-144068500D01*
X151717500Y-141380593D01*
X168662796Y-141380593D01*
X168841606Y-141813346D01*
X169172412Y-142144730D01*
X169604853Y-142324295D01*
X170073093Y-142324704D01*
X170505846Y-142145894D01*
X170837230Y-141815088D01*
X171016795Y-141382647D01*
X171017204Y-140914407D01*
X170838394Y-140481654D01*
X170507588Y-140150270D01*
X170075147Y-139970705D01*
X169606907Y-139970296D01*
X169174154Y-140149106D01*
X168842770Y-140479912D01*
X168663205Y-140912353D01*
X168662796Y-141380593D01*
X151717500Y-141380593D01*
X151717500Y-136448500D01*
X151675482Y-136237259D01*
X151555823Y-136058177D01*
X151101146Y-135603500D01*
X152899500Y-135603500D01*
X152899500Y-136099300D01*
X152835539Y-136163150D01*
X152724626Y-136430256D01*
X152724374Y-136719475D01*
X152834820Y-136986775D01*
X153039150Y-137191461D01*
X153306256Y-137302374D01*
X153595475Y-137302626D01*
X153862775Y-137192180D01*
X154067461Y-136987850D01*
X154178374Y-136720744D01*
X154178626Y-136431525D01*
X154068180Y-136164225D01*
X154003500Y-136099432D01*
X154003500Y-135527700D01*
X154067461Y-135463850D01*
X154178374Y-135196744D01*
X154178626Y-134907525D01*
X154068180Y-134640225D01*
X153863850Y-134435539D01*
X153596744Y-134324626D01*
X153307525Y-134324374D01*
X153040225Y-134434820D01*
X152975432Y-134499500D01*
X150949646Y-134499500D01*
X150178047Y-133727901D01*
X150178126Y-133637525D01*
X150067680Y-133370225D01*
X149863350Y-133165539D01*
X149596244Y-133054626D01*
X149307025Y-133054374D01*
X149039725Y-133164820D01*
X148850931Y-133353285D01*
X148291522Y-132793876D01*
X148578975Y-132794126D01*
X148846275Y-132683680D01*
X149050961Y-132479350D01*
X149161874Y-132212244D01*
X149161954Y-132120692D01*
X154521099Y-126761547D01*
X154611475Y-126761626D01*
X154741000Y-126708107D01*
X154741000Y-128225300D01*
X154677039Y-128289150D01*
X154566126Y-128556256D01*
X154565874Y-128845475D01*
X154676320Y-129112775D01*
X154880650Y-129317461D01*
X155147756Y-129428374D01*
X155436975Y-129428626D01*
X155704275Y-129318180D01*
X155908961Y-129113850D01*
X155918275Y-129091421D01*
X159455453Y-132628599D01*
X159455374Y-132718975D01*
X159565820Y-132986275D01*
X159770150Y-133190961D01*
X160037256Y-133301874D01*
X160326475Y-133302126D01*
X160593775Y-133191680D01*
X160798461Y-132987350D01*
X160909374Y-132720244D01*
X160909626Y-132431025D01*
X160799180Y-132163725D01*
X160594850Y-131959039D01*
X160327744Y-131848126D01*
X160236192Y-131848046D01*
X158784646Y-130396500D01*
X161541354Y-130396500D01*
X177474000Y-146329146D01*
X177474000Y-147878500D01*
X177516018Y-148089742D01*
X177635677Y-148268823D01*
X179297177Y-149930323D01*
X179476258Y-150049982D01*
X179687500Y-150092000D01*
X180837492Y-150092000D01*
X181072007Y-150442975D01*
X181486295Y-150719794D01*
X181939791Y-150810000D01*
X181486295Y-150900206D01*
X181072007Y-151177025D01*
X180795188Y-151591313D01*
X180697982Y-152080000D01*
X180795188Y-152568687D01*
X181072007Y-152982975D01*
X181486295Y-153259794D01*
X181939791Y-153350000D01*
X181486295Y-153440206D01*
X181072007Y-153717025D01*
X180795188Y-154131313D01*
X180697982Y-154620000D01*
X180795188Y-155108687D01*
X181072007Y-155522975D01*
X181486295Y-155799794D01*
X181939791Y-155890000D01*
X181486295Y-155980206D01*
X181072007Y-156257025D01*
X180795188Y-156671313D01*
X180697982Y-157160000D01*
X180795188Y-157648687D01*
X181072007Y-158062975D01*
X181486295Y-158339794D01*
X181974982Y-158437000D01*
X182025018Y-158437000D01*
X182513705Y-158339794D01*
X182927993Y-158062975D01*
X183204812Y-157648687D01*
X183302018Y-157160000D01*
X183204812Y-156671313D01*
X182927993Y-156257025D01*
X182513705Y-155980206D01*
X182060209Y-155890000D01*
X182513705Y-155799794D01*
X182927993Y-155522975D01*
X183204812Y-155108687D01*
X183302018Y-154620000D01*
X183204812Y-154131313D01*
X182927993Y-153717025D01*
X182513705Y-153440206D01*
X182060209Y-153350000D01*
X182513705Y-153259794D01*
X182927993Y-152982975D01*
X183162508Y-152632000D01*
X183667000Y-152632000D01*
X183878242Y-152589982D01*
X184057323Y-152470323D01*
X184448823Y-152078823D01*
X184523000Y-151967810D01*
X184523000Y-159523000D01*
X135477000Y-159523000D01*
X135477000Y-140988750D01*
X136599500Y-140988750D01*
X136599500Y-141679310D01*
X136696173Y-141912699D01*
X136874802Y-142091327D01*
X137108191Y-142188000D01*
X137384028Y-142188000D01*
X137156507Y-142340025D01*
X136879688Y-142754313D01*
X136782482Y-143243000D01*
X136879688Y-143731687D01*
X137156507Y-144145975D01*
X137570795Y-144422794D01*
X138024291Y-144513000D01*
X137570795Y-144603206D01*
X137156507Y-144880025D01*
X136879688Y-145294313D01*
X136782482Y-145783000D01*
X136879688Y-146271687D01*
X137156507Y-146685975D01*
X137570795Y-146962794D01*
X138024291Y-147053000D01*
X137570795Y-147143206D01*
X137156507Y-147420025D01*
X136879688Y-147834313D01*
X136782482Y-148323000D01*
X136879688Y-148811687D01*
X137156507Y-149225975D01*
X137570795Y-149502794D01*
X138024291Y-149593000D01*
X137570795Y-149683206D01*
X137156507Y-149960025D01*
X136879688Y-150374313D01*
X136782482Y-150863000D01*
X136879688Y-151351687D01*
X137156507Y-151765975D01*
X137570795Y-152042794D01*
X138059482Y-152140000D01*
X138109518Y-152140000D01*
X138598205Y-152042794D01*
X139012493Y-151765975D01*
X139289312Y-151351687D01*
X139386518Y-150863000D01*
X139289312Y-150374313D01*
X139012493Y-149960025D01*
X138598205Y-149683206D01*
X138144709Y-149593000D01*
X138598205Y-149502794D01*
X139012493Y-149225975D01*
X139230303Y-148900000D01*
X141005495Y-148900000D01*
X141005500Y-148900001D01*
X141226308Y-148856078D01*
X141413501Y-148731001D01*
X141602424Y-148542078D01*
X141657475Y-148542126D01*
X141924775Y-148431680D01*
X142129461Y-148227350D01*
X142240374Y-147960244D01*
X142240626Y-147671025D01*
X142130180Y-147403725D01*
X141925850Y-147199039D01*
X141658744Y-147088126D01*
X141369525Y-147087874D01*
X141102225Y-147198320D01*
X140897539Y-147402650D01*
X140786626Y-147669756D01*
X140786577Y-147725921D01*
X140766498Y-147746000D01*
X139230303Y-147746000D01*
X139012493Y-147420025D01*
X138598205Y-147143206D01*
X138144709Y-147053000D01*
X138598205Y-146962794D01*
X139012493Y-146685975D01*
X139289312Y-146271687D01*
X139386518Y-145783000D01*
X139373764Y-145718882D01*
X140805099Y-144287547D01*
X140895475Y-144287626D01*
X141162775Y-144177180D01*
X141367461Y-143972850D01*
X141478374Y-143705744D01*
X141478626Y-143416525D01*
X141368180Y-143149225D01*
X141163850Y-142944539D01*
X140896744Y-142833626D01*
X140636297Y-142833399D01*
X140668500Y-142671500D01*
X140668500Y-139598146D01*
X140868599Y-139398047D01*
X140958975Y-139398126D01*
X141226275Y-139287680D01*
X141430961Y-139083350D01*
X141541874Y-138816244D01*
X141542126Y-138527025D01*
X141431680Y-138259725D01*
X141227350Y-138055039D01*
X140960244Y-137944126D01*
X140671025Y-137943874D01*
X140403725Y-138054320D01*
X140199039Y-138258650D01*
X140088126Y-138525756D01*
X140088046Y-138617308D01*
X139726177Y-138979177D01*
X139606518Y-139158258D01*
X139564500Y-139369500D01*
X139564500Y-139714619D01*
X139472827Y-139493301D01*
X139294198Y-139314673D01*
X139060809Y-139218000D01*
X138370250Y-139218000D01*
X138211500Y-139376750D01*
X138211500Y-140576000D01*
X138231500Y-140576000D01*
X138231500Y-140830000D01*
X138211500Y-140830000D01*
X138211500Y-140850000D01*
X137957500Y-140850000D01*
X137957500Y-140830000D01*
X136758250Y-140830000D01*
X136599500Y-140988750D01*
X135477000Y-140988750D01*
X135477000Y-139726690D01*
X136599500Y-139726690D01*
X136599500Y-140417250D01*
X136758250Y-140576000D01*
X137957500Y-140576000D01*
X137957500Y-139376750D01*
X137798750Y-139218000D01*
X137108191Y-139218000D01*
X136874802Y-139314673D01*
X136696173Y-139493301D01*
X136599500Y-139726690D01*
X135477000Y-139726690D01*
X135477000Y-129693690D01*
X136599500Y-129693690D01*
X136599500Y-130384250D01*
X136758250Y-130543000D01*
X137957500Y-130543000D01*
X137957500Y-129343750D01*
X138211500Y-129343750D01*
X138211500Y-130543000D01*
X139410750Y-130543000D01*
X139569500Y-130384250D01*
X139569500Y-129693690D01*
X139472827Y-129460301D01*
X139294198Y-129281673D01*
X139060809Y-129185000D01*
X138370250Y-129185000D01*
X138211500Y-129343750D01*
X137957500Y-129343750D01*
X137798750Y-129185000D01*
X137108191Y-129185000D01*
X136874802Y-129281673D01*
X136696173Y-129460301D01*
X136599500Y-129693690D01*
X135477000Y-129693690D01*
X135477000Y-114354392D01*
X136566514Y-114354392D01*
X136812817Y-114878858D01*
X137241076Y-115269145D01*
X137651110Y-115438976D01*
X137881000Y-115317655D01*
X137881000Y-114124500D01*
X136687181Y-114124500D01*
X136566514Y-114354392D01*
X135477000Y-114354392D01*
X135477000Y-113640608D01*
X136566514Y-113640608D01*
X136687181Y-113870500D01*
X137881000Y-113870500D01*
X137881000Y-112677345D01*
X138135000Y-112677345D01*
X138135000Y-113870500D01*
X138155000Y-113870500D01*
X138155000Y-114124500D01*
X138135000Y-114124500D01*
X138135000Y-115317655D01*
X138364890Y-115438976D01*
X138774924Y-115269145D01*
X139203183Y-114878858D01*
X139262635Y-114752264D01*
X139262635Y-114847500D01*
X139292409Y-115005737D01*
X139385927Y-115151067D01*
X139528619Y-115248564D01*
X139698000Y-115282865D01*
X141398000Y-115282865D01*
X141556237Y-115253091D01*
X141701567Y-115159573D01*
X141799064Y-115016881D01*
X141833365Y-114847500D01*
X141833365Y-113147500D01*
X141803591Y-112989263D01*
X141710073Y-112843933D01*
X141567381Y-112746436D01*
X141398000Y-112712135D01*
X139698000Y-112712135D01*
X139539763Y-112741909D01*
X139394433Y-112835427D01*
X139296936Y-112978119D01*
X139262635Y-113147500D01*
X139262635Y-113242736D01*
X139203183Y-113116142D01*
X138774924Y-112725855D01*
X138364890Y-112556024D01*
X138135000Y-112677345D01*
X137881000Y-112677345D01*
X137651110Y-112556024D01*
X137241076Y-112725855D01*
X136812817Y-113116142D01*
X136566514Y-113640608D01*
X135477000Y-113640608D01*
X135477000Y-110477000D01*
X173581000Y-110477000D01*
X173581000Y-121018000D01*
X173581000Y-121018000D01*
G37*
X173581000Y-121018000D02*
X173591006Y-121067410D01*
X173619447Y-121109035D01*
X173661841Y-121136315D01*
X173708000Y-121145000D01*
X184523000Y-121145000D01*
X184523000Y-144551191D01*
X184448823Y-144440177D01*
X184067823Y-144059177D01*
X183888742Y-143939518D01*
X183677500Y-143897500D01*
X180286646Y-143897500D01*
X178508163Y-142119017D01*
X180848088Y-142119017D01*
X180916077Y-142359960D01*
X181435171Y-142544701D01*
X181985448Y-142516730D01*
X182363923Y-142359960D01*
X182431912Y-142119017D01*
X181640000Y-141327105D01*
X180848088Y-142119017D01*
X178508163Y-142119017D01*
X178451000Y-142061854D01*
X178451000Y-140942671D01*
X180242799Y-140942671D01*
X180270770Y-141492948D01*
X180427540Y-141871423D01*
X180668483Y-141939412D01*
X181460395Y-141147500D01*
X181819605Y-141147500D01*
X182611517Y-141939412D01*
X182852460Y-141871423D01*
X183037201Y-141352329D01*
X183009230Y-140802052D01*
X182852460Y-140423577D01*
X182611517Y-140355588D01*
X181819605Y-141147500D01*
X181460395Y-141147500D01*
X180668483Y-140355588D01*
X180427540Y-140423577D01*
X180242799Y-140942671D01*
X178451000Y-140942671D01*
X178451000Y-140175983D01*
X180848088Y-140175983D01*
X181640000Y-140967895D01*
X182431912Y-140175983D01*
X182363923Y-139935040D01*
X181844829Y-139750299D01*
X181294552Y-139778270D01*
X180916077Y-139935040D01*
X180848088Y-140175983D01*
X178451000Y-140175983D01*
X178451000Y-139814000D01*
X178433633Y-139726690D01*
X178408982Y-139602758D01*
X178289323Y-139423677D01*
X162928343Y-124062697D01*
X163084461Y-123906850D01*
X163195374Y-123639744D01*
X163195626Y-123350525D01*
X163085180Y-123083225D01*
X162880850Y-122878539D01*
X162759623Y-122828201D01*
X161931211Y-121999789D01*
X161789376Y-121905018D01*
X161711577Y-121853034D01*
X161452500Y-121801500D01*
X160605500Y-121801500D01*
X160605500Y-118342982D01*
X160751171Y-118343109D01*
X160981703Y-118247855D01*
X160986566Y-118243000D01*
X165742710Y-118243000D01*
X165841896Y-118342187D01*
X165841891Y-118348171D01*
X165937145Y-118578703D01*
X166113369Y-118755235D01*
X166343735Y-118850891D01*
X166593171Y-118851109D01*
X166823703Y-118755855D01*
X167000235Y-118579631D01*
X167095891Y-118349265D01*
X167096109Y-118099829D01*
X167000855Y-117869297D01*
X166824631Y-117692765D01*
X166594265Y-117597109D01*
X166587393Y-117597103D01*
X166333645Y-117343355D01*
X166162675Y-117229115D01*
X165961000Y-117189000D01*
X160986859Y-117189000D01*
X160982631Y-117184765D01*
X160752265Y-117089109D01*
X160605500Y-117088981D01*
X160605500Y-116827000D01*
X160553966Y-116567923D01*
X160407211Y-116348289D01*
X160212500Y-116153578D01*
X160212500Y-116127853D01*
X160262374Y-116007744D01*
X160262626Y-115718525D01*
X160152180Y-115451225D01*
X159947850Y-115246539D01*
X159680744Y-115135626D01*
X159391525Y-115135374D01*
X159124225Y-115245820D01*
X158919539Y-115450150D01*
X158808626Y-115717256D01*
X158808374Y-116006475D01*
X158858500Y-116127789D01*
X158858500Y-116434000D01*
X158910034Y-116693077D01*
X158960152Y-116768084D01*
X158875297Y-116803145D01*
X158844164Y-116834223D01*
X158774325Y-116848115D01*
X158603355Y-116962355D01*
X156889314Y-118676396D01*
X156883329Y-118676391D01*
X156652797Y-118771645D01*
X156555781Y-118868491D01*
X152772000Y-115084710D01*
X152772000Y-115027859D01*
X152776235Y-115023631D01*
X152871891Y-114793265D01*
X152872095Y-114560000D01*
X161429170Y-114560000D01*
X163239328Y-116318439D01*
X163333645Y-116546703D01*
X163509869Y-116723235D01*
X163740235Y-116818891D01*
X163989671Y-116819109D01*
X164220203Y-116723855D01*
X164396735Y-116547631D01*
X164492391Y-116317265D01*
X164492609Y-116067829D01*
X164397355Y-115837297D01*
X164221131Y-115660765D01*
X163990765Y-115565109D01*
X163976488Y-115565097D01*
X162010206Y-113654994D01*
X161927040Y-113601151D01*
X161844674Y-113546115D01*
X161840861Y-113545357D01*
X161837598Y-113543244D01*
X161740193Y-113525333D01*
X161643000Y-113506000D01*
X145895000Y-113506000D01*
X145693326Y-113546115D01*
X145522355Y-113660354D01*
X145170906Y-114011803D01*
X145114680Y-113875725D01*
X144910350Y-113671039D01*
X144643244Y-113560126D01*
X144354025Y-113559874D01*
X144086725Y-113670320D01*
X143882039Y-113874650D01*
X143771126Y-114141756D01*
X143771046Y-114233308D01*
X139999401Y-118004953D01*
X139909025Y-118004874D01*
X139641725Y-118115320D01*
X139437039Y-118319650D01*
X139326126Y-118586756D01*
X139325874Y-118875975D01*
X139436320Y-119143275D01*
X139640650Y-119347961D01*
X139907756Y-119458874D01*
X140196975Y-119459126D01*
X140464275Y-119348680D01*
X140668961Y-119144350D01*
X140779874Y-118877244D01*
X140779954Y-118785692D01*
X144161500Y-115404146D01*
X144161500Y-120227428D01*
X144100025Y-120227374D01*
X143832725Y-120337820D01*
X143628039Y-120542150D01*
X143532610Y-120771967D01*
X141796789Y-122507789D01*
X141650034Y-122727423D01*
X141598500Y-122986500D01*
X141598500Y-123546647D01*
X141548626Y-123666756D01*
X141548374Y-123955975D01*
X141658820Y-124223275D01*
X141863150Y-124427961D01*
X142130256Y-124538874D01*
X142419475Y-124539126D01*
X142686775Y-124428680D01*
X142891461Y-124224350D01*
X143002374Y-123957244D01*
X143002626Y-123668025D01*
X142952500Y-123546711D01*
X142952500Y-123266922D01*
X143819000Y-122400423D01*
X143819000Y-129044354D01*
X140205354Y-132658000D01*
X139247008Y-132658000D01*
X139012493Y-132307025D01*
X138784972Y-132155000D01*
X139060809Y-132155000D01*
X139294198Y-132058327D01*
X139472827Y-131879699D01*
X139569500Y-131646310D01*
X139569500Y-130955750D01*
X139410750Y-130797000D01*
X138211500Y-130797000D01*
X138211500Y-130817000D01*
X137957500Y-130817000D01*
X137957500Y-130797000D01*
X136758250Y-130797000D01*
X136599500Y-130955750D01*
X136599500Y-131646310D01*
X136696173Y-131879699D01*
X136874802Y-132058327D01*
X137108191Y-132155000D01*
X137384028Y-132155000D01*
X137156507Y-132307025D01*
X136879688Y-132721313D01*
X136782482Y-133210000D01*
X136879688Y-133698687D01*
X137156507Y-134112975D01*
X137570795Y-134389794D01*
X138024291Y-134480000D01*
X137570795Y-134570206D01*
X137156507Y-134847025D01*
X136879688Y-135261313D01*
X136782482Y-135750000D01*
X136879688Y-136238687D01*
X137156507Y-136652975D01*
X137570795Y-136929794D01*
X138059482Y-137027000D01*
X138109518Y-137027000D01*
X138598205Y-136929794D01*
X139012493Y-136652975D01*
X139289312Y-136238687D01*
X139358304Y-135891842D01*
X143054865Y-132195281D01*
X143059000Y-132205289D01*
X143059000Y-134543500D01*
X143110534Y-134802577D01*
X143180658Y-134907525D01*
X143257289Y-135022211D01*
X144781288Y-136546211D01*
X144891106Y-136619588D01*
X145000923Y-136692966D01*
X145209416Y-136734438D01*
X143174401Y-138769453D01*
X143084025Y-138769374D01*
X142816725Y-138879820D01*
X142612039Y-139084150D01*
X142501126Y-139351256D01*
X142500874Y-139640475D01*
X142611320Y-139907775D01*
X142676000Y-139972568D01*
X142676000Y-145021000D01*
X142718018Y-145232242D01*
X142837677Y-145411323D01*
X146183953Y-148757599D01*
X146183874Y-148847975D01*
X146294320Y-149115275D01*
X146359000Y-149180068D01*
X146359000Y-153847500D01*
X146401018Y-154058742D01*
X146520677Y-154237823D01*
X146846284Y-154563430D01*
X146755626Y-154781756D01*
X146755374Y-155070975D01*
X146756417Y-155073500D01*
X143513700Y-155073500D01*
X143449850Y-155009539D01*
X143182744Y-154898626D01*
X142893525Y-154898374D01*
X142626225Y-155008820D01*
X142421539Y-155213150D01*
X142310626Y-155480256D01*
X142310374Y-155769475D01*
X142420820Y-156036775D01*
X142625150Y-156241461D01*
X142892256Y-156352374D01*
X143181475Y-156352626D01*
X143448775Y-156242180D01*
X143513568Y-156177500D01*
X148054000Y-156177500D01*
X148265242Y-156135482D01*
X148444323Y-156015823D01*
X148634823Y-155825323D01*
X148754482Y-155646242D01*
X148796500Y-155435000D01*
X148796500Y-154355500D01*
X148765595Y-154200126D01*
X148754482Y-154144258D01*
X148634823Y-153965177D01*
X148634583Y-153964937D01*
X148655775Y-153956180D01*
X148860461Y-153751850D01*
X148971374Y-153484744D01*
X148971626Y-153195525D01*
X148861180Y-152928225D01*
X148796500Y-152863432D01*
X148796500Y-143344646D01*
X150613500Y-141527646D01*
X150613500Y-143839854D01*
X149632177Y-144821177D01*
X149512518Y-145000258D01*
X149470500Y-145211500D01*
X149470500Y-152352500D01*
X149512518Y-152563742D01*
X149632177Y-152742823D01*
X151074483Y-154185129D01*
X150987982Y-154620000D01*
X151085188Y-155108687D01*
X151362007Y-155522975D01*
X151776295Y-155799794D01*
X152264982Y-155897000D01*
X152315018Y-155897000D01*
X152803705Y-155799794D01*
X153217993Y-155522975D01*
X153494812Y-155108687D01*
X153592018Y-154620000D01*
X153494812Y-154131313D01*
X153217993Y-153717025D01*
X152803705Y-153440206D01*
X152350209Y-153350000D01*
X152803705Y-153259794D01*
X153217993Y-152982975D01*
X153494812Y-152568687D01*
X153592018Y-152080000D01*
X153494812Y-151591313D01*
X153217993Y-151177025D01*
X152810417Y-150904691D01*
X153171358Y-150735183D01*
X153561645Y-150306924D01*
X153731476Y-149896890D01*
X153610155Y-149667000D01*
X152417000Y-149667000D01*
X152417000Y-149687000D01*
X152163000Y-149687000D01*
X152163000Y-149667000D01*
X150969845Y-149667000D01*
X150848524Y-149896890D01*
X151018355Y-150306924D01*
X151408642Y-150735183D01*
X151769583Y-150904691D01*
X151362007Y-151177025D01*
X151085188Y-151591313D01*
X150987982Y-152080000D01*
X151085188Y-152568687D01*
X151217799Y-152767153D01*
X150574500Y-152123854D01*
X150574500Y-149183110D01*
X150848524Y-149183110D01*
X150969845Y-149413000D01*
X152163000Y-149413000D01*
X152163000Y-149393000D01*
X152417000Y-149393000D01*
X152417000Y-149413000D01*
X153610155Y-149413000D01*
X153731476Y-149183110D01*
X153561645Y-148773076D01*
X153171358Y-148344817D01*
X153044764Y-148285365D01*
X153140000Y-148285365D01*
X153298237Y-148255591D01*
X153443567Y-148162073D01*
X153541064Y-148019381D01*
X153575365Y-147850000D01*
X153575365Y-146150000D01*
X153545591Y-145991763D01*
X153452073Y-145846433D01*
X153309381Y-145748936D01*
X153140000Y-145714635D01*
X151440000Y-145714635D01*
X151281763Y-145744409D01*
X151136433Y-145837927D01*
X151038936Y-145980619D01*
X151004635Y-146150000D01*
X151004635Y-147850000D01*
X151034409Y-148008237D01*
X151127927Y-148153567D01*
X151270619Y-148251064D01*
X151440000Y-148285365D01*
X151535236Y-148285365D01*
X151408642Y-148344817D01*
X151018355Y-148773076D01*
X150848524Y-149183110D01*
X150574500Y-149183110D01*
X150574500Y-145440146D01*
X151555823Y-144458823D01*
X151675482Y-144279742D01*
X151717500Y-144068500D01*
X151717500Y-141380593D01*
X168662796Y-141380593D01*
X168841606Y-141813346D01*
X169172412Y-142144730D01*
X169604853Y-142324295D01*
X170073093Y-142324704D01*
X170505846Y-142145894D01*
X170837230Y-141815088D01*
X171016795Y-141382647D01*
X171017204Y-140914407D01*
X170838394Y-140481654D01*
X170507588Y-140150270D01*
X170075147Y-139970705D01*
X169606907Y-139970296D01*
X169174154Y-140149106D01*
X168842770Y-140479912D01*
X168663205Y-140912353D01*
X168662796Y-141380593D01*
X151717500Y-141380593D01*
X151717500Y-136448500D01*
X151675482Y-136237259D01*
X151555823Y-136058177D01*
X151101146Y-135603500D01*
X152899500Y-135603500D01*
X152899500Y-136099300D01*
X152835539Y-136163150D01*
X152724626Y-136430256D01*
X152724374Y-136719475D01*
X152834820Y-136986775D01*
X153039150Y-137191461D01*
X153306256Y-137302374D01*
X153595475Y-137302626D01*
X153862775Y-137192180D01*
X154067461Y-136987850D01*
X154178374Y-136720744D01*
X154178626Y-136431525D01*
X154068180Y-136164225D01*
X154003500Y-136099432D01*
X154003500Y-135527700D01*
X154067461Y-135463850D01*
X154178374Y-135196744D01*
X154178626Y-134907525D01*
X154068180Y-134640225D01*
X153863850Y-134435539D01*
X153596744Y-134324626D01*
X153307525Y-134324374D01*
X153040225Y-134434820D01*
X152975432Y-134499500D01*
X150949646Y-134499500D01*
X150178047Y-133727901D01*
X150178126Y-133637525D01*
X150067680Y-133370225D01*
X149863350Y-133165539D01*
X149596244Y-133054626D01*
X149307025Y-133054374D01*
X149039725Y-133164820D01*
X148850931Y-133353285D01*
X148291522Y-132793876D01*
X148578975Y-132794126D01*
X148846275Y-132683680D01*
X149050961Y-132479350D01*
X149161874Y-132212244D01*
X149161954Y-132120692D01*
X154521099Y-126761547D01*
X154611475Y-126761626D01*
X154741000Y-126708107D01*
X154741000Y-128225300D01*
X154677039Y-128289150D01*
X154566126Y-128556256D01*
X154565874Y-128845475D01*
X154676320Y-129112775D01*
X154880650Y-129317461D01*
X155147756Y-129428374D01*
X155436975Y-129428626D01*
X155704275Y-129318180D01*
X155908961Y-129113850D01*
X155918275Y-129091421D01*
X159455453Y-132628599D01*
X159455374Y-132718975D01*
X159565820Y-132986275D01*
X159770150Y-133190961D01*
X160037256Y-133301874D01*
X160326475Y-133302126D01*
X160593775Y-133191680D01*
X160798461Y-132987350D01*
X160909374Y-132720244D01*
X160909626Y-132431025D01*
X160799180Y-132163725D01*
X160594850Y-131959039D01*
X160327744Y-131848126D01*
X160236192Y-131848046D01*
X158784646Y-130396500D01*
X161541354Y-130396500D01*
X177474000Y-146329146D01*
X177474000Y-147878500D01*
X177516018Y-148089742D01*
X177635677Y-148268823D01*
X179297177Y-149930323D01*
X179476258Y-150049982D01*
X179687500Y-150092000D01*
X180837492Y-150092000D01*
X181072007Y-150442975D01*
X181486295Y-150719794D01*
X181939791Y-150810000D01*
X181486295Y-150900206D01*
X181072007Y-151177025D01*
X180795188Y-151591313D01*
X180697982Y-152080000D01*
X180795188Y-152568687D01*
X181072007Y-152982975D01*
X181486295Y-153259794D01*
X181939791Y-153350000D01*
X181486295Y-153440206D01*
X181072007Y-153717025D01*
X180795188Y-154131313D01*
X180697982Y-154620000D01*
X180795188Y-155108687D01*
X181072007Y-155522975D01*
X181486295Y-155799794D01*
X181939791Y-155890000D01*
X181486295Y-155980206D01*
X181072007Y-156257025D01*
X180795188Y-156671313D01*
X180697982Y-157160000D01*
X180795188Y-157648687D01*
X181072007Y-158062975D01*
X181486295Y-158339794D01*
X181974982Y-158437000D01*
X182025018Y-158437000D01*
X182513705Y-158339794D01*
X182927993Y-158062975D01*
X183204812Y-157648687D01*
X183302018Y-157160000D01*
X183204812Y-156671313D01*
X182927993Y-156257025D01*
X182513705Y-155980206D01*
X182060209Y-155890000D01*
X182513705Y-155799794D01*
X182927993Y-155522975D01*
X183204812Y-155108687D01*
X183302018Y-154620000D01*
X183204812Y-154131313D01*
X182927993Y-153717025D01*
X182513705Y-153440206D01*
X182060209Y-153350000D01*
X182513705Y-153259794D01*
X182927993Y-152982975D01*
X183162508Y-152632000D01*
X183667000Y-152632000D01*
X183878242Y-152589982D01*
X184057323Y-152470323D01*
X184448823Y-152078823D01*
X184523000Y-151967810D01*
X184523000Y-159523000D01*
X135477000Y-159523000D01*
X135477000Y-140988750D01*
X136599500Y-140988750D01*
X136599500Y-141679310D01*
X136696173Y-141912699D01*
X136874802Y-142091327D01*
X137108191Y-142188000D01*
X137384028Y-142188000D01*
X137156507Y-142340025D01*
X136879688Y-142754313D01*
X136782482Y-143243000D01*
X136879688Y-143731687D01*
X137156507Y-144145975D01*
X137570795Y-144422794D01*
X138024291Y-144513000D01*
X137570795Y-144603206D01*
X137156507Y-144880025D01*
X136879688Y-145294313D01*
X136782482Y-145783000D01*
X136879688Y-146271687D01*
X137156507Y-146685975D01*
X137570795Y-146962794D01*
X138024291Y-147053000D01*
X137570795Y-147143206D01*
X137156507Y-147420025D01*
X136879688Y-147834313D01*
X136782482Y-148323000D01*
X136879688Y-148811687D01*
X137156507Y-149225975D01*
X137570795Y-149502794D01*
X138024291Y-149593000D01*
X137570795Y-149683206D01*
X137156507Y-149960025D01*
X136879688Y-150374313D01*
X136782482Y-150863000D01*
X136879688Y-151351687D01*
X137156507Y-151765975D01*
X137570795Y-152042794D01*
X138059482Y-152140000D01*
X138109518Y-152140000D01*
X138598205Y-152042794D01*
X139012493Y-151765975D01*
X139289312Y-151351687D01*
X139386518Y-150863000D01*
X139289312Y-150374313D01*
X139012493Y-149960025D01*
X138598205Y-149683206D01*
X138144709Y-149593000D01*
X138598205Y-149502794D01*
X139012493Y-149225975D01*
X139230303Y-148900000D01*
X141005495Y-148900000D01*
X141005500Y-148900001D01*
X141226308Y-148856078D01*
X141413501Y-148731001D01*
X141602424Y-148542078D01*
X141657475Y-148542126D01*
X141924775Y-148431680D01*
X142129461Y-148227350D01*
X142240374Y-147960244D01*
X142240626Y-147671025D01*
X142130180Y-147403725D01*
X141925850Y-147199039D01*
X141658744Y-147088126D01*
X141369525Y-147087874D01*
X141102225Y-147198320D01*
X140897539Y-147402650D01*
X140786626Y-147669756D01*
X140786577Y-147725921D01*
X140766498Y-147746000D01*
X139230303Y-147746000D01*
X139012493Y-147420025D01*
X138598205Y-147143206D01*
X138144709Y-147053000D01*
X138598205Y-146962794D01*
X139012493Y-146685975D01*
X139289312Y-146271687D01*
X139386518Y-145783000D01*
X139373764Y-145718882D01*
X140805099Y-144287547D01*
X140895475Y-144287626D01*
X141162775Y-144177180D01*
X141367461Y-143972850D01*
X141478374Y-143705744D01*
X141478626Y-143416525D01*
X141368180Y-143149225D01*
X141163850Y-142944539D01*
X140896744Y-142833626D01*
X140636297Y-142833399D01*
X140668500Y-142671500D01*
X140668500Y-139598146D01*
X140868599Y-139398047D01*
X140958975Y-139398126D01*
X141226275Y-139287680D01*
X141430961Y-139083350D01*
X141541874Y-138816244D01*
X141542126Y-138527025D01*
X141431680Y-138259725D01*
X141227350Y-138055039D01*
X140960244Y-137944126D01*
X140671025Y-137943874D01*
X140403725Y-138054320D01*
X140199039Y-138258650D01*
X140088126Y-138525756D01*
X140088046Y-138617308D01*
X139726177Y-138979177D01*
X139606518Y-139158258D01*
X139564500Y-139369500D01*
X139564500Y-139714619D01*
X139472827Y-139493301D01*
X139294198Y-139314673D01*
X139060809Y-139218000D01*
X138370250Y-139218000D01*
X138211500Y-139376750D01*
X138211500Y-140576000D01*
X138231500Y-140576000D01*
X138231500Y-140830000D01*
X138211500Y-140830000D01*
X138211500Y-140850000D01*
X137957500Y-140850000D01*
X137957500Y-140830000D01*
X136758250Y-140830000D01*
X136599500Y-140988750D01*
X135477000Y-140988750D01*
X135477000Y-139726690D01*
X136599500Y-139726690D01*
X136599500Y-140417250D01*
X136758250Y-140576000D01*
X137957500Y-140576000D01*
X137957500Y-139376750D01*
X137798750Y-139218000D01*
X137108191Y-139218000D01*
X136874802Y-139314673D01*
X136696173Y-139493301D01*
X136599500Y-139726690D01*
X135477000Y-139726690D01*
X135477000Y-129693690D01*
X136599500Y-129693690D01*
X136599500Y-130384250D01*
X136758250Y-130543000D01*
X137957500Y-130543000D01*
X137957500Y-129343750D01*
X138211500Y-129343750D01*
X138211500Y-130543000D01*
X139410750Y-130543000D01*
X139569500Y-130384250D01*
X139569500Y-129693690D01*
X139472827Y-129460301D01*
X139294198Y-129281673D01*
X139060809Y-129185000D01*
X138370250Y-129185000D01*
X138211500Y-129343750D01*
X137957500Y-129343750D01*
X137798750Y-129185000D01*
X137108191Y-129185000D01*
X136874802Y-129281673D01*
X136696173Y-129460301D01*
X136599500Y-129693690D01*
X135477000Y-129693690D01*
X135477000Y-114354392D01*
X136566514Y-114354392D01*
X136812817Y-114878858D01*
X137241076Y-115269145D01*
X137651110Y-115438976D01*
X137881000Y-115317655D01*
X137881000Y-114124500D01*
X136687181Y-114124500D01*
X136566514Y-114354392D01*
X135477000Y-114354392D01*
X135477000Y-113640608D01*
X136566514Y-113640608D01*
X136687181Y-113870500D01*
X137881000Y-113870500D01*
X137881000Y-112677345D01*
X138135000Y-112677345D01*
X138135000Y-113870500D01*
X138155000Y-113870500D01*
X138155000Y-114124500D01*
X138135000Y-114124500D01*
X138135000Y-115317655D01*
X138364890Y-115438976D01*
X138774924Y-115269145D01*
X139203183Y-114878858D01*
X139262635Y-114752264D01*
X139262635Y-114847500D01*
X139292409Y-115005737D01*
X139385927Y-115151067D01*
X139528619Y-115248564D01*
X139698000Y-115282865D01*
X141398000Y-115282865D01*
X141556237Y-115253091D01*
X141701567Y-115159573D01*
X141799064Y-115016881D01*
X141833365Y-114847500D01*
X141833365Y-113147500D01*
X141803591Y-112989263D01*
X141710073Y-112843933D01*
X141567381Y-112746436D01*
X141398000Y-112712135D01*
X139698000Y-112712135D01*
X139539763Y-112741909D01*
X139394433Y-112835427D01*
X139296936Y-112978119D01*
X139262635Y-113147500D01*
X139262635Y-113242736D01*
X139203183Y-113116142D01*
X138774924Y-112725855D01*
X138364890Y-112556024D01*
X138135000Y-112677345D01*
X137881000Y-112677345D01*
X137651110Y-112556024D01*
X137241076Y-112725855D01*
X136812817Y-113116142D01*
X136566514Y-113640608D01*
X135477000Y-113640608D01*
X135477000Y-110477000D01*
X173581000Y-110477000D01*
X173581000Y-121018000D01*
G36*
X149104953Y-137010099D02*
X149104874Y-137100475D01*
X149215320Y-137367775D01*
X149419650Y-137572461D01*
X149686756Y-137683374D01*
X149975975Y-137683626D01*
X150042000Y-137656345D01*
X150042000Y-139801751D01*
X149850244Y-139722126D01*
X149561025Y-139721874D01*
X149293725Y-139832320D01*
X149253976Y-139872000D01*
X148435000Y-139872000D01*
X148214191Y-139915922D01*
X148139213Y-139966021D01*
X148137667Y-139967054D01*
X148035680Y-139720225D01*
X147831350Y-139515539D01*
X147564244Y-139404626D01*
X147275025Y-139404374D01*
X147007725Y-139514820D01*
X146803039Y-139719150D01*
X146692126Y-139986256D01*
X146691874Y-140275475D01*
X146802320Y-140542775D01*
X147006650Y-140747461D01*
X147228441Y-140839557D01*
X147139576Y-140928422D01*
X147084525Y-140928374D01*
X146817225Y-141038820D01*
X146612539Y-141243150D01*
X146501626Y-141510256D01*
X146501374Y-141799475D01*
X146611820Y-142066775D01*
X146816150Y-142271461D01*
X147083256Y-142382374D01*
X147372475Y-142382626D01*
X147639775Y-142272180D01*
X147844461Y-142067850D01*
X147955374Y-141800744D01*
X147955423Y-141744579D01*
X148674001Y-141026000D01*
X149253757Y-141026000D01*
X149292650Y-141064961D01*
X149449686Y-141130168D01*
X147854177Y-142725677D01*
X147734518Y-142904758D01*
X147734518Y-142904759D01*
X147692500Y-143116000D01*
X147692500Y-149374648D01*
X147691244Y-149374126D01*
X147463000Y-149373927D01*
X147463000Y-149180200D01*
X147526961Y-149116350D01*
X147637874Y-148849244D01*
X147638126Y-148560025D01*
X147527680Y-148292725D01*
X147323350Y-148088039D01*
X147056244Y-147977126D01*
X146964692Y-147977046D01*
X143780000Y-144792354D01*
X143780000Y-139972700D01*
X143843961Y-139908850D01*
X143954874Y-139641744D01*
X143954954Y-139550192D01*
X146060146Y-137445000D01*
X147387411Y-137445000D01*
X147514650Y-137572461D01*
X147781756Y-137683374D01*
X148070975Y-137683626D01*
X148338275Y-137573180D01*
X148542961Y-137368850D01*
X148653874Y-137101744D01*
X148654126Y-136812525D01*
X148543680Y-136545225D01*
X148479000Y-136480432D01*
X148479000Y-136384146D01*
X149104953Y-137010099D01*
X149104953Y-137010099D01*
G37*
X149104953Y-137010099D02*
X149104874Y-137100475D01*
X149215320Y-137367775D01*
X149419650Y-137572461D01*
X149686756Y-137683374D01*
X149975975Y-137683626D01*
X150042000Y-137656345D01*
X150042000Y-139801751D01*
X149850244Y-139722126D01*
X149561025Y-139721874D01*
X149293725Y-139832320D01*
X149253976Y-139872000D01*
X148435000Y-139872000D01*
X148214191Y-139915922D01*
X148139213Y-139966021D01*
X148137667Y-139967054D01*
X148035680Y-139720225D01*
X147831350Y-139515539D01*
X147564244Y-139404626D01*
X147275025Y-139404374D01*
X147007725Y-139514820D01*
X146803039Y-139719150D01*
X146692126Y-139986256D01*
X146691874Y-140275475D01*
X146802320Y-140542775D01*
X147006650Y-140747461D01*
X147228441Y-140839557D01*
X147139576Y-140928422D01*
X147084525Y-140928374D01*
X146817225Y-141038820D01*
X146612539Y-141243150D01*
X146501626Y-141510256D01*
X146501374Y-141799475D01*
X146611820Y-142066775D01*
X146816150Y-142271461D01*
X147083256Y-142382374D01*
X147372475Y-142382626D01*
X147639775Y-142272180D01*
X147844461Y-142067850D01*
X147955374Y-141800744D01*
X147955423Y-141744579D01*
X148674001Y-141026000D01*
X149253757Y-141026000D01*
X149292650Y-141064961D01*
X149449686Y-141130168D01*
X147854177Y-142725677D01*
X147734518Y-142904758D01*
X147734518Y-142904759D01*
X147692500Y-143116000D01*
X147692500Y-149374648D01*
X147691244Y-149374126D01*
X147463000Y-149373927D01*
X147463000Y-149180200D01*
X147526961Y-149116350D01*
X147637874Y-148849244D01*
X147638126Y-148560025D01*
X147527680Y-148292725D01*
X147323350Y-148088039D01*
X147056244Y-147977126D01*
X146964692Y-147977046D01*
X143780000Y-144792354D01*
X143780000Y-139972700D01*
X143843961Y-139908850D01*
X143954874Y-139641744D01*
X143954954Y-139550192D01*
X146060146Y-137445000D01*
X147387411Y-137445000D01*
X147514650Y-137572461D01*
X147781756Y-137683374D01*
X148070975Y-137683626D01*
X148338275Y-137573180D01*
X148542961Y-137368850D01*
X148653874Y-137101744D01*
X148654126Y-136812525D01*
X148543680Y-136545225D01*
X148479000Y-136480432D01*
X148479000Y-136384146D01*
X149104953Y-137010099D01*
G36*
X158106500Y-122580146D02*
X158106500Y-122923000D01*
X158148518Y-123134242D01*
X158268177Y-123313323D01*
X158649177Y-123694323D01*
X158828259Y-123813982D01*
X159039500Y-123856000D01*
X161160354Y-123856000D01*
X177347000Y-140042646D01*
X177347000Y-142290500D01*
X177362979Y-142370833D01*
X163430323Y-128438177D01*
X163251242Y-128318518D01*
X163040000Y-128276500D01*
X158760146Y-128276500D01*
X158004000Y-127520354D01*
X158004000Y-122605500D01*
X157979748Y-122483576D01*
X157972254Y-122445900D01*
X158106500Y-122580146D01*
X158106500Y-122580146D01*
G37*
X158106500Y-122580146D02*
X158106500Y-122923000D01*
X158148518Y-123134242D01*
X158268177Y-123313323D01*
X158649177Y-123694323D01*
X158828259Y-123813982D01*
X159039500Y-123856000D01*
X161160354Y-123856000D01*
X177347000Y-140042646D01*
X177347000Y-142290500D01*
X177362979Y-142370833D01*
X163430323Y-128438177D01*
X163251242Y-128318518D01*
X163040000Y-128276500D01*
X158760146Y-128276500D01*
X158004000Y-127520354D01*
X158004000Y-122605500D01*
X157979748Y-122483576D01*
X157972254Y-122445900D01*
X158106500Y-122580146D01*
G36*
X154277854Y-121863000D02*
X149705000Y-121863000D01*
X149493758Y-121905018D01*
X149314677Y-122024677D01*
X149079901Y-122259453D01*
X148989525Y-122259374D01*
X148722225Y-122369820D01*
X148517539Y-122574150D01*
X148406626Y-122841256D01*
X148406374Y-123130475D01*
X148516820Y-123397775D01*
X148721150Y-123602461D01*
X148988256Y-123713374D01*
X149277475Y-123713626D01*
X149544775Y-123603180D01*
X149749461Y-123398850D01*
X149860374Y-123131744D01*
X149860454Y-123040192D01*
X149933646Y-122967000D01*
X152968383Y-122967000D01*
X152915126Y-123095256D01*
X152914874Y-123384475D01*
X153025320Y-123651775D01*
X153229650Y-123856461D01*
X153496756Y-123967374D01*
X153588308Y-123967454D01*
X154741000Y-125120146D01*
X154741000Y-125360883D01*
X154612744Y-125307626D01*
X154323525Y-125307374D01*
X154056225Y-125417820D01*
X153959566Y-125514311D01*
X153927350Y-125482039D01*
X153660244Y-125371126D01*
X153371025Y-125370874D01*
X153103725Y-125481320D01*
X152899039Y-125685650D01*
X152788126Y-125952756D01*
X152788046Y-126044308D01*
X148444901Y-130387453D01*
X148354525Y-130387374D01*
X148288500Y-130414655D01*
X148288500Y-122014500D01*
X148498500Y-122014500D01*
X148709742Y-121972482D01*
X148888823Y-121852823D01*
X150584099Y-120157547D01*
X150674475Y-120157626D01*
X150941775Y-120047180D01*
X151146461Y-119842850D01*
X151257374Y-119575744D01*
X151257626Y-119286525D01*
X151147180Y-119019225D01*
X150942850Y-118814539D01*
X150675744Y-118703626D01*
X150386525Y-118703374D01*
X150119225Y-118813820D01*
X149914539Y-119018150D01*
X149876000Y-119110961D01*
X149876000Y-118506428D01*
X150102975Y-118506626D01*
X150370275Y-118396180D01*
X150574961Y-118191850D01*
X150584275Y-118169421D01*
X154277854Y-121863000D01*
X154277854Y-121863000D01*
G37*
X154277854Y-121863000D02*
X149705000Y-121863000D01*
X149493758Y-121905018D01*
X149314677Y-122024677D01*
X149079901Y-122259453D01*
X148989525Y-122259374D01*
X148722225Y-122369820D01*
X148517539Y-122574150D01*
X148406626Y-122841256D01*
X148406374Y-123130475D01*
X148516820Y-123397775D01*
X148721150Y-123602461D01*
X148988256Y-123713374D01*
X149277475Y-123713626D01*
X149544775Y-123603180D01*
X149749461Y-123398850D01*
X149860374Y-123131744D01*
X149860454Y-123040192D01*
X149933646Y-122967000D01*
X152968383Y-122967000D01*
X152915126Y-123095256D01*
X152914874Y-123384475D01*
X153025320Y-123651775D01*
X153229650Y-123856461D01*
X153496756Y-123967374D01*
X153588308Y-123967454D01*
X154741000Y-125120146D01*
X154741000Y-125360883D01*
X154612744Y-125307626D01*
X154323525Y-125307374D01*
X154056225Y-125417820D01*
X153959566Y-125514311D01*
X153927350Y-125482039D01*
X153660244Y-125371126D01*
X153371025Y-125370874D01*
X153103725Y-125481320D01*
X152899039Y-125685650D01*
X152788126Y-125952756D01*
X152788046Y-126044308D01*
X148444901Y-130387453D01*
X148354525Y-130387374D01*
X148288500Y-130414655D01*
X148288500Y-122014500D01*
X148498500Y-122014500D01*
X148709742Y-121972482D01*
X148888823Y-121852823D01*
X150584099Y-120157547D01*
X150674475Y-120157626D01*
X150941775Y-120047180D01*
X151146461Y-119842850D01*
X151257374Y-119575744D01*
X151257626Y-119286525D01*
X151147180Y-119019225D01*
X150942850Y-118814539D01*
X150675744Y-118703626D01*
X150386525Y-118703374D01*
X150119225Y-118813820D01*
X149914539Y-119018150D01*
X149876000Y-119110961D01*
X149876000Y-118506428D01*
X150102975Y-118506626D01*
X150370275Y-118396180D01*
X150574961Y-118191850D01*
X150584275Y-118169421D01*
X154277854Y-121863000D01*
G36*
X159104735Y-117961891D02*
X159251500Y-117962019D01*
X159251500Y-120708518D01*
X159105829Y-120708391D01*
X159031467Y-120739117D01*
X159031609Y-120576329D01*
X158936355Y-120345797D01*
X158760131Y-120169265D01*
X158529765Y-120073609D01*
X158522893Y-120073603D01*
X158423500Y-119974210D01*
X158423500Y-119790359D01*
X158427735Y-119786131D01*
X158523391Y-119555765D01*
X158523609Y-119306329D01*
X158428355Y-119075797D01*
X158252131Y-118899265D01*
X158184929Y-118871361D01*
X159097432Y-117958858D01*
X159104735Y-117961891D01*
X159104735Y-117961891D01*
G37*
X159104735Y-117961891D02*
X159251500Y-117962019D01*
X159251500Y-120708518D01*
X159105829Y-120708391D01*
X159031467Y-120739117D01*
X159031609Y-120576329D01*
X158936355Y-120345797D01*
X158760131Y-120169265D01*
X158529765Y-120073609D01*
X158522893Y-120073603D01*
X158423500Y-119974210D01*
X158423500Y-119790359D01*
X158427735Y-119786131D01*
X158523391Y-119555765D01*
X158523609Y-119306329D01*
X158428355Y-119075797D01*
X158252131Y-118899265D01*
X158184929Y-118871361D01*
X159097432Y-117958858D01*
X159104735Y-117961891D01*
M02*
